<?xml version="1.0" encoding="UTF-8"?>
<svg version="1.1" xmlns="http://www.w3.org/2000/svg" width="3840" height="775">
<path d="M0 0 C9.50807334 4.28770065 17.27859397 11.36454281 25.1171875 18.10546875 C25.76123535 18.6571875 26.4052832 19.20890625 27.06884766 19.77734375 C32.58232667 24.50921846 38.05792453 29.28387871 43.5 34.09765625 C69.5252103 56.96393402 99.44094928 75.40149137 129.82763672 91.86230469 C131.35318165 92.69063427 132.87566687 93.52462412 134.39501953 94.36425781 C159.79563041 108.38244382 186.74989798 119.56892599 214.1171875 129.10546875 C215.25945801 129.51071777 216.40172852 129.9159668 217.57861328 130.33349609 C260.4659896 145.49629696 304.89437028 155.34370481 350.02026367 160.84832764 C352.02796895 161.09452808 354.03452735 161.3500274 356.04101562 161.60595703 C409.63662784 168.19301308 464.21776743 164.89238835 517.1171875 155.10546875 C520.39026532 154.50534414 523.66351502 153.9061849 526.93701172 153.30834961 C528.72077737 152.9806273 530.50376025 152.64859304 532.28564453 152.31079102 C557.34016461 147.62242202 557.34016461 147.62242202 568.1171875 153.10546875 C573.07209521 156.95928586 575.59123047 161.98487463 576.38137817 168.17526245 C576.4680621 170.3153725 576.45911289 172.42925215 576.40234375 174.5703125 C576.39106949 175.35107651 576.37979523 176.13184052 576.36817932 176.93626404 C576.19943853 184.89449348 575.48339577 192.76688498 574.5546875 200.66796875 C574.46826996 201.42325867 574.38185242 202.17854858 574.29281616 202.95672607 C567.26024089 263.88051387 553.12098208 324.83886037 534.1171875 383.10546875 C533.7839447 384.12939728 533.7839447 384.12939728 533.44396973 385.17401123 C523.67200644 415.12325257 512.24816841 444.46641678 499.1171875 473.10546875 C498.82179077 473.75104736 498.52639404 474.39662598 498.2220459 475.06176758 C490.18843638 492.6056692 481.9691231 509.95131621 472.44482422 526.74707031 C471.16637768 529.01808789 469.919593 531.30331056 468.68359375 533.59765625 C452.20283557 564.07234089 432.52082209 593.64291635 410.1171875 620.10546875 C409.24814895 621.14798012 408.37968902 622.19097403 407.51171875 623.234375 C397.49418745 635.21189622 386.86777236 646.51539397 375.8359375 657.5546875 C374.6896705 658.7041818 373.54347247 659.85374489 372.39733887 661.00337219 C370.01583162 663.39080595 367.63233004 665.77622742 365.24755859 668.16040039 C362.22041024 671.18744685 359.20022601 674.22134091 356.18172455 677.25700665 C353.82403555 679.62590538 351.46172276 681.99015279 349.09815979 684.35318947 C347.98359266 685.46892101 346.87060925 686.58623736 345.75938416 687.70529747 C338.86170038 694.64710193 331.80205424 701.02922488 324.1171875 707.10546875 C322.94281787 708.08138673 321.7712152 709.06067262 320.60546875 710.046875 C304.21961446 723.66900399 286.07897431 735.40270025 267.1171875 745.10546875 C266.38822266 745.48219727 265.65925781 745.85892578 264.90820312 746.24707031 C238.05258946 759.97872656 209.03732807 768.5493731 179.1171875 772.10546875 C178.06785034 772.24686279 178.06785034 772.24686279 176.99731445 772.39111328 C106.61634893 780.89494117 29.78664331 758.22521563 -25.83984375 714.796875 C-28.55620336 712.60479179 -31.22979799 710.37369489 -33.8828125 708.10546875 C-34.65496094 707.44546875 -35.42710937 706.78546875 -36.22265625 706.10546875 C-47.99403847 695.76388837 -59.43209004 684.62638961 -68.8828125 672.10546875 C-69.32995605 671.5134668 -69.77709961 670.92146484 -70.23779297 670.31152344 C-75.42667692 663.4127654 -80.39030523 656.4823973 -84.8828125 649.10546875 C-85.86954956 649.35453979 -85.86954956 649.35453979 -86.8762207 649.60864258 C-144.61841514 664.08561854 -201.46632106 661.99633529 -253.84619141 631.11401367 C-280.61591745 614.91670025 -306.38769023 593.39897133 -325.79296875 568.75390625 C-328.00350475 565.9525167 -330.31209103 563.25357143 -332.6328125 560.54296875 C-386.08535337 496.35035012 -419.45528403 413.06429941 -452.3203125 268.54296875 C-452.4402356 267.8255954 -452.56015869 267.10822205 -452.68371582 266.36911011 C-455.06571108 251.97722825 -457.24610458 237.53593033 -457.1953125 222.91796875 C-457.21142578 221.94794922 -457.22753906 220.97792969 -457.24414062 219.97851562 C-457.24842737 213.71557648 -456.68005332 209.00261103 -452.1328125 204.29296875 C-449.11154604 202.69841145 -446.25700917 202.42991074 -442.8828125 202.10546875 C-442.79644531 201.5021875 -442.71007812 200.89890625 -442.62109375 200.27734375 C-441.46206886 193.68472511 -441.46206886 193.68472511 -438.3828125 190.60546875 C-426.42587369 183.43130546 -406.66812318 188.9393898 -393.6953125 191.48046875 C-390.32834869 192.1215485 -386.95963911 192.75288954 -383.58984375 193.37890625 C-382.77025177 193.53139832 -381.95065979 193.68389038 -381.10623169 193.84100342 C-362.12453 197.30279094 -342.96443332 198.34129622 -323.6953125 198.35546875 C-322.43749466 198.35648087 -322.43749466 198.35648087 -321.15426636 198.35751343 C-245.45221724 198.26221679 -170.73150539 179.02225947 -103.50634766 144.40649414 C-102.65991699 143.97199951 -101.81348633 143.53750488 -100.94140625 143.08984375 C-100.20204834 142.70538086 -99.46269043 142.32091797 -98.70092773 141.92480469 C-96.8828125 141.10546875 -96.8828125 141.10546875 -94.8828125 141.10546875 C-94.66238281 139.94144531 -94.44195312 138.77742187 -94.21484375 137.578125 C-92.6070003 130.37997669 -90.0400954 123.47985495 -87.5703125 116.54296875 C-87.30848175 115.80403381 -87.046651 115.06509888 -86.77688599 114.30377197 C-79.35927744 93.42198939 -71.05739093 72.89606547 -62.0078125 52.66796875 C-61.59200928 51.72163574 -61.17620605 50.77530273 -60.74780273 49.80029297 C-56.9333298 41.46997383 -51.72870148 33.1268377 -43.8828125 28.10546875 C-42.42961814 28.04359453 -40.97379479 28.03176405 -39.51953125 28.05859375 C-36.53205084 27.77995608 -35.31462466 27.58356528 -33.27929688 25.33007812 C-31.8778267 22.88940851 -30.69973155 20.43320164 -29.5703125 17.85546875 C-28.76644916 16.13970285 -27.95796742 14.42609197 -27.14453125 12.71484375 C-26.76538574 11.90942139 -26.38624023 11.10399902 -25.99560547 10.27416992 C-20.47356445 -0.48763139 -11.30528711 -3.50800914 0 0 Z M-24.8828125 290.10546875 C-7.39058442 295.53960036 10.20405332 300.58962112 27.83246994 305.55895615 C33.73529927 307.22347818 39.63694128 308.89220992 45.53864098 310.56073189 C47.02471885 310.98084722 48.51082441 311.40086462 49.99695778 311.82078362 C60.08792659 314.67242959 70.17081405 317.55035529 80.24609375 320.45703125 C81.39613892 320.78825485 82.54618408 321.11947845 83.7310791 321.46073914 C92.51077229 323.98950691 92.51077229 323.98950691 96.7008667 325.20755005 C99.58705767 326.04652135 102.47496373 326.87932262 105.36328125 327.7109375 C106.20170059 327.95683624 107.04011993 328.20273499 107.90394592 328.45608521 C108.67097336 328.67577972 109.43800079 328.89547424 110.22827148 329.12182617 C110.88778305 329.31322678 111.54729462 329.50462738 112.22679138 329.701828 C114.4469895 330.24467858 114.4469895 330.24467858 118.1171875 330.10546875 C114.12283798 319.49246277 107.5910313 310.53147765 100.1171875 302.10546875 C99.17939453 301.04199219 99.17939453 301.04199219 98.22265625 299.95703125 C80.70999941 281.30144312 54.5015735 271.61572421 29.3046875 270.79296875 C10.89206703 271.18524828 -11.77293904 276.54926449 -24.8828125 290.10546875 Z M-226.32543945 317.21337891 C-227.17665375 317.43782684 -228.02786804 317.66227478 -228.90487671 317.89352417 C-231.72820225 318.63921069 -234.54962012 319.39187076 -237.37109375 320.14453125 C-239.35040283 320.66868538 -241.32983092 321.19239026 -243.30937195 321.71566772 C-248.54106113 323.09986186 -253.77118061 324.489898 -259.00097656 325.88122559 C-264.23611552 327.27303473 -269.47256619 328.65988793 -274.70898438 330.046875 C-280.64152676 331.61832411 -286.57397095 333.19012222 -292.50520325 334.76651001 C-305.62114326 338.25118006 -318.74862074 341.69024748 -331.8828125 345.10546875 C-332.23028689 348.20498075 -332.23028689 348.20498075 -329.96875 350.0859375 C-312.10522935 364.62900546 -293.23544671 372.42010015 -269.8828125 371.10546875 C-254.58756979 369.1008291 -237.49384863 364.35408228 -227.31713867 352.05029297 C-225.01619228 348.93040549 -223.35870941 345.62564136 -221.7578125 342.10546875 C-221.41943359 341.37505371 -221.08105469 340.64463867 -220.73242188 339.89208984 C-217.32249395 332.27888371 -213.8828125 323.52620658 -213.8828125 315.10546875 C-218.30734258 315.10546875 -222.09396224 316.07678584 -226.32543945 317.21337891 Z M261.1171875 376.10546875 C296.31323675 386.42516477 331.5661258 396.50562868 366.89355469 406.36669922 C374.80088881 408.57458727 382.70424904 410.79653752 390.60671997 413.02175903 C392.61852026 413.58824517 394.63040907 414.15441565 396.64233398 414.72045898 C399.46733594 415.51528198 402.29228931 416.31027704 405.1171875 417.10546875 C403.63630063 412.42410045 401.74473467 408.50897459 399.0546875 404.41796875 C398.65693115 403.80928955 398.2591748 403.20061035 397.84936523 402.57348633 C381.5233707 377.99931262 358.729064 364.15013721 330.1171875 358.10546875 C326.76290957 357.53452783 323.51575572 357.19390733 320.1171875 357.10546875 C319.42367187 357.06679688 318.73015625 357.028125 318.015625 356.98828125 C299.70058413 356.38887991 274.41399465 362.47564961 261.1171875 376.10546875 Z M-143.6159668 454.59936523 C-144.6510437 455.03357788 -144.6510437 455.03357788 -145.70703125 455.4765625 C-146.48095215 455.79939209 -147.25487305 456.12222168 -148.05224609 456.45483398 C-148.88320801 456.81391846 -149.71416992 457.17300293 -150.5703125 457.54296875 C-151.42447754 457.90914307 -152.27864258 458.27531738 -153.15869141 458.65258789 C-175.98450286 468.59286062 -196.66371905 481.46016954 -209.8828125 503.10546875 C-210.26034668 503.71519531 -210.63788086 504.32492187 -211.02685547 504.953125 C-218.20796951 516.68378342 -224.68312419 529.43084636 -226.8828125 543.10546875 C-206.38630497 537.72747314 -185.98304267 532.06830433 -165.61846924 526.21203613 C-162.01707092 525.1770546 -158.41473743 524.14533765 -154.8125 523.11328125 C-147.83505935 521.11372896 -140.85859519 519.11079848 -133.8828125 517.10546875 C-133.81368033 512.16553888 -133.9731326 507.5056872 -134.6875 502.60546875 C-134.94297607 500.79598755 -134.94297607 500.79598755 -135.20361328 498.94995117 C-135.38649902 497.68127197 -135.56938477 496.41259277 -135.7578125 495.10546875 C-137.30453038 484.16197489 -138.5163445 473.2419295 -139.19873047 462.20507812 C-139.26205566 461.27888672 -139.32538086 460.35269531 -139.390625 459.3984375 C-139.43848145 458.58914795 -139.48633789 457.7798584 -139.53564453 456.94604492 C-139.65020996 456.33865479 -139.76477539 455.73126465 -139.8828125 455.10546875 C-141.79305247 453.86900838 -141.79305247 453.86900838 -143.6159668 454.59936523 Z M21.1171875 486.10546875 C22.64419024 490.64358363 25.15835845 494.24093539 27.9921875 498.04296875 C28.47469971 498.69467041 28.95721191 499.34637207 29.4543457 500.01782227 C39.91709388 513.97320032 51.39184193 526.30671508 65.1171875 537.10546875 C66.02082031 537.82605469 66.92445313 538.54664063 67.85546875 539.2890625 C112.21441511 573.70865988 173.23599278 591.95788762 229.23535156 585.22583008 C252.28031645 581.96362748 275.05283427 575.0175152 295.1171875 563.10546875 C291.70286041 561.21660402 288.25217451 560.19525747 284.50048828 559.14794922 C283.83632369 558.96133791 283.1721591 558.7747266 282.48786831 558.5824604 C280.26381386 557.95863721 278.03817673 557.34066431 275.8125 556.72265625 C274.21685669 556.27639144 272.62131369 555.8297678 271.02586365 555.3828125 C266.67857622 554.16605692 262.32988846 552.95437639 257.98094559 551.74355316 C253.36399265 550.45715812 248.74835737 549.1660521 244.13256836 547.87548828 C235.38399565 545.4301952 226.63426006 542.98909134 217.8840189 540.54977608 C208.54670768 537.9467366 199.210297 535.34047647 189.87400246 532.73379326 C178.23336762 529.48380934 166.59247817 526.23473991 154.95092773 522.98803711 C130.56496391 516.18686075 106.18308871 509.37120312 81.8046875 502.54296875 C81.02685535 502.3251046 80.24902321 502.10724045 79.44762039 501.88277435 C75.70049728 500.83321574 71.95340128 499.78356043 68.2063446 498.73376465 C65.41080905 497.95058005 62.61516018 497.167802 59.81941223 496.38537598 C53.39256776 494.58634861 46.96731168 492.78195272 40.54541016 490.96533203 C38.78811333 490.46949364 38.78811333 490.46949364 36.99531555 489.96363831 C34.81793858 489.34904166 32.64113276 488.73241649 30.4650116 488.11338806 C29.51854263 487.84659744 28.57207367 487.57980682 27.59692383 487.30493164 C26.77444656 487.07173721 25.9519693 486.83854279 25.10456848 486.59828186 C23.13491468 486.02524149 23.13491468 486.02524149 21.1171875 486.10546875 Z " fill="#1D8D22" transform="translate(456.8828125,0.89453125)"/>
<path d="M0 0 C5.21602898 0.58559002 10.20597007 1.41820092 15.3203125 2.63671875 C16.73743054 2.96805892 18.15475832 3.29850296 19.57226562 3.62817383 C20.68275269 3.88747177 20.68275269 3.88747177 21.81567383 4.15200806 C60.12358873 13.03493679 99.74537092 19.05860752 139.12109375 19.203125 C140.41199417 19.21018463 141.70289459 19.21724426 143.03291321 19.22451782 C147.16778142 19.24400092 151.30259016 19.24920926 155.4375 19.25 C156.49527397 19.25044186 156.49527397 19.25044186 157.57441711 19.25089264 C190.75164869 19.25313098 222.38381691 16.03431873 255 10 C258.27307782 9.39987539 261.54632752 8.80071615 264.81982422 8.20288086 C266.60358987 7.87515855 268.38657275 7.54312429 270.16845703 7.20532227 C295.22297711 2.51695327 295.22297711 2.51695327 306 8 C310.95490771 11.85381711 313.47404297 16.87940588 314.26419067 23.0697937 C314.3508746 25.20990375 314.34192539 27.3237834 314.28515625 29.46484375 C314.27388199 30.24560776 314.26260773 31.02637177 314.25099182 31.83079529 C314.08225103 39.78902473 313.36620827 47.66141623 312.4375 55.5625 C312.30787369 56.69543488 312.30787369 56.69543488 312.17562866 57.85125732 C305.14305339 118.77504512 291.00379458 179.73339162 272 238 C271.77783813 238.68261902 271.55567627 239.36523804 271.32678223 240.06854248 C261.55481894 270.01778382 250.13098091 299.36094803 237 328 C236.70460327 328.64557861 236.40920654 329.29115723 236.1048584 329.95629883 C228.07124888 347.50020045 219.8519356 364.84584746 210.32763672 381.64160156 C209.04919018 383.91261914 207.8024055 386.19784181 206.56640625 388.4921875 C190.08564807 418.96687214 170.40363459 448.5374476 148 475 C147.13096145 476.04251137 146.26250152 477.08550528 145.39453125 478.12890625 C135.56368326 489.88321845 125.16887928 501.01798029 114.33642578 511.84887695 C112.600299 513.58723271 110.87239458 515.33351287 109.14453125 517.08007812 C108.02652956 518.20100767 106.90805764 519.32146844 105.7890625 520.44140625 C105.28065826 520.956996 104.77225403 521.47258575 104.2484436 522.00379944 C101.36782678 524.86612996 98.53527613 527.01891342 95 529 C93.07927836 530.59550538 91.18602959 532.22433471 89.3125 533.875 C34.81811063 580.79478797 -34.48632862 602.97743028 -105.85400391 598.77294922 C-120.27910817 597.66452882 -134.47136664 595.2532152 -148.6015625 592.18359375 C-149.42994629 592.00368896 -150.25833008 591.82378418 -151.11181641 591.63842773 C-153 591 -153 591 -154 589 C-153.58203125 586.72290039 -153.58203125 586.72290039 -152.8125 583.84765625 C-152.52947021 582.77483398 -152.24644043 581.70201172 -151.95483398 580.59667969 C-151.48219116 578.84726074 -151.48219116 578.84726074 -151 577.0625 C-150.34485567 574.58989578 -149.68991335 572.11723804 -149.03515625 569.64453125 C-148.69629395 568.37432129 -148.35743164 567.10411133 -148.00830078 565.79541016 C-146.45650879 559.9542096 -144.94823553 554.1019247 -143.4375 548.25 C-142.8544886 546.0012186 -142.27115832 543.75251984 -141.6875 541.50390625 C-140.8599572 538.31512689 -140.03269201 535.12627893 -139.20703125 531.93701172 C-136.84405216 522.81045479 -134.4779699 513.68735542 -131.95507812 504.60351562 C-129.71644284 496.53574691 -127.59457743 488.44530553 -125.57421875 480.3203125 C-125.25032669 479.01805977 -125.25032669 479.01805977 -124.91989136 477.6894989 C-123.83685229 473.32787064 -122.75998471 468.96480715 -121.69042969 464.59985352 C-119.07371955 453.97531959 -116.18283834 443.46899625 -113 433 C-112.30664551 433.14099121 -111.61329102 433.28198242 -110.89892578 433.42724609 C-56.08790404 444.49093555 -3.50522809 441.36460086 45.01367188 410.72851562 C53.36681537 405.09456711 60.90544472 398.13118375 68 391 C33.04057433 380.91041665 -1.99824838 371.11185037 -37.05126953 361.35351562 C-68.55593445 352.58237648 -68.55593445 352.58237648 -79.953125 349.34375 C-81.19397858 348.99298401 -81.19397858 348.99298401 -82.4598999 348.63513184 C-87.7601039 347.11994805 -87.7601039 347.11994805 -90 346 C-88.04890253 335.38793329 -85.5104762 325.02424299 -82.70019531 314.61132812 C-81.46300906 309.99733086 -80.26477976 305.37319143 -79.0625 300.75 C-78.55217766 298.79164209 -78.04176042 296.83330889 -77.53125 294.875 C-77.27730469 293.90046875 -77.02335938 292.9259375 -76.76171875 291.921875 C-76.0189592 289.07272554 -75.27528454 286.22381675 -74.53125 283.375 C-71.54401863 271.93572547 -68.57058983 260.49294028 -65.60571289 249.04785156 C-63.50324479 240.93428076 -61.39155195 232.82316437 -59.27172852 224.71411133 C-57.9212886 219.54466133 -56.57908327 214.37319827 -55.24609375 209.19921875 C-50.09904274 189.23663081 -50.09904274 189.23663081 -47.625 180.5625 C-44.5779998 169.84826303 -41.97057354 159.0154338 -39.29736328 148.20336914 C-36.37225359 136.38531317 -33.30014752 124.61689445 -30.02294922 112.89086914 C-26.28791236 99.46922387 -22.9501749 85.94836535 -19.60302734 72.42602539 C-17.44378627 63.71161236 -15.23286059 55.01815433 -12.89794922 46.34887695 C-12.08207905 43.30611155 -11.28819811 40.25905812 -10.5078125 37.20703125 C-7.30724759 24.70532075 -3.80839862 12.33002815 0 0 Z M-1 231 C34.19604925 241.31969602 69.4489383 251.40015993 104.77636719 261.26123047 C112.68370131 263.46911852 120.58706154 265.69106877 128.48953247 267.91629028 C130.50133276 268.48277642 132.51322157 269.0489469 134.52514648 269.61499023 C137.35014844 270.40981323 140.17510181 271.20480829 143 272 C141.51911313 267.3186317 139.62754717 263.40350584 136.9375 259.3125 C136.53974365 258.7038208 136.1419873 258.0951416 135.73217773 257.46801758 C119.4061832 232.89384387 96.6118765 219.04466846 68 213 C64.64572207 212.42905908 61.39856822 212.08843858 58 212 C57.30648437 211.96132813 56.61296875 211.92265625 55.8984375 211.8828125 C37.58339663 211.28341116 12.29680715 217.37018086 -1 231 Z " fill="#2DAC32" transform="translate(719,146)"/>
<path d="M0 0 C1.29907992 3.89723976 0.43595751 5.59084441 -0.7734375 9.5 C-1.18581334 10.85749647 -1.59816575 12.21500007 -2.01049805 13.57250977 C-2.23264984 14.29221954 -2.45480164 15.01192932 -2.6836853 15.75344849 C-3.86987489 19.60818501 -5.0198701 23.47361876 -6.16796875 27.33984375 C-6.40576553 28.14034653 -6.64356232 28.9408493 -6.88856506 29.76560974 C-21.4535104 79.09721171 -30.75082585 129.86556477 -36 181 C-36.16773926 182.59908203 -36.16773926 182.59908203 -36.33886719 184.23046875 C-39.12560183 211.13080946 -39.13253791 237.97358944 -39.06866455 264.98626709 C-39.05829045 269.84761109 -39.05383725 274.70896053 -39.04882812 279.5703125 C-39.03821984 289.04688899 -39.02123536 298.52344176 -39 308 C-39.58738449 308.19175812 -40.17476898 308.38351624 -40.779953 308.58108521 C-43.4938933 309.4695043 -46.20592332 310.36362649 -48.91796875 311.2578125 C-50.30332825 311.70991089 -50.30332825 311.70991089 -51.7166748 312.17114258 C-86.4121086 323.64234418 -117.46773164 344.59724376 -137 376 C-137.37753418 376.60682617 -137.75506836 377.21365234 -138.14404297 377.83886719 C-145.14322877 389.27820733 -151.42729256 401.75322668 -154 415 C-153.23041962 414.78274765 -152.46083923 414.5654953 -151.66793823 414.34165955 C-141.73743765 411.53857452 -131.80642137 408.73732082 -121.875 405.9375 C-121.07794018 405.71279526 -120.28088036 405.48809052 -119.45966721 405.25657654 C-89.32715619 396.76251191 -59.17365484 388.34684569 -29 380 C-27.19854862 383.46259017 -26.13357864 386.80415882 -25.1171875 390.58203125 C-24.75577093 391.90823077 -24.3939373 393.23431669 -24.03173828 394.56030273 C-23.8435553 395.25372772 -23.65537231 395.94715271 -23.46148682 396.66159058 C-13.53424127 433.0692393 0.42369484 467.2599548 21 499 C11.45655487 508.54344513 -11.28913217 510.99731447 -24.5 513.5 C-26.41945435 513.86399902 -26.41945435 513.86399902 -28.37768555 514.23535156 C-40.75431808 516.46982934 -52.80424912 517.23906408 -65.375 517.25 C-66.07798218 517.25067474 -66.78096436 517.25134949 -67.50524902 517.25204468 C-79.54258691 517.23379595 -91.19399962 516.45260446 -103 514 C-103.82854492 513.82839355 -104.65708984 513.65678711 -105.51074219 513.47998047 C-156.90264111 502.4420659 -202.19953042 470.65831989 -236 431 C-236.81210938 430.06542969 -237.62421875 429.13085938 -238.4609375 428.16796875 C-295.60720207 362.05022051 -331.0243875 277.06759495 -352 193 C-352.19315796 192.23230286 -352.38631592 191.46460571 -352.58532715 190.67364502 C-357.68636258 170.3816899 -361.89958669 149.99740246 -365.4375 129.375 C-365.6052594 128.40628967 -365.7730188 127.43757935 -365.94586182 126.43951416 C-374.72799198 75.31625437 -374.72799198 75.31625437 -368 65 C-362.98157459 60.76307352 -359.16671377 60.38117109 -352.88671875 60.5390625 C-352.01206467 60.55103668 -351.13741058 60.56301086 -350.23625183 60.5753479 C-340.58552771 60.83709206 -331.26354693 62.52375457 -321.8125 64.375 C-318.44553619 65.01607975 -315.07682661 65.64742079 -311.70703125 66.2734375 C-310.88743927 66.42592957 -310.06784729 66.57842163 -309.22341919 66.73553467 C-290.2417175 70.19732219 -271.08162082 71.23582747 -251.8125 71.25 C-250.55468216 71.25101212 -250.55468216 71.25101212 -249.27145386 71.25204468 C-172.56538197 71.15548413 -98.73174675 50.78795584 -30.25 16.8125 C-29.59398804 16.48860291 -28.93797607 16.16470581 -28.26208496 15.83099365 C-18.5434646 11.0169632 -9.22860135 5.69523877 0 0 Z M-154.44262695 190.10791016 C-155.29384125 190.33235809 -156.14505554 190.55680603 -157.02206421 190.78805542 C-159.84538975 191.53374194 -162.66680762 192.28640201 -165.48828125 193.0390625 C-167.46759033 193.56321663 -169.44701842 194.08692151 -171.42655945 194.61019897 C-176.65824863 195.99439311 -181.88836811 197.38442925 -187.11816406 198.77575684 C-192.35330302 200.16756598 -197.58975369 201.55441918 -202.82617188 202.94140625 C-208.75871426 204.51285536 -214.69115845 206.08465347 -220.62239075 207.66104126 C-233.73833076 211.14571131 -246.86580824 214.58477873 -260 218 C-260.34747439 221.099512 -260.34747439 221.099512 -258.0859375 222.98046875 C-240.22241685 237.52353671 -221.35263421 245.3146314 -198 244 C-182.70475729 241.99536035 -165.61103613 237.24861353 -155.43432617 224.94482422 C-153.13337978 221.82493674 -151.47589691 218.52017261 -149.875 215 C-149.53662109 214.26958496 -149.19824219 213.53916992 -148.84960938 212.78662109 C-145.43968145 205.17341496 -142 196.42073783 -142 188 C-146.42453008 188 -150.21114974 188.97131709 -154.44262695 190.10791016 Z " fill="#D65348" transform="translate(385,128)"/>
<path d="M0 0 C18.5078125 19.90991951 18.5078125 19.90991951 18.5078125 28.55859375 C19.1678125 28.55859375 19.8278125 28.55859375 20.5078125 28.55859375 C20.5078125 12.38859375 20.5078125 -3.78140625 20.5078125 -20.44140625 C47.2378125 -20.44140625 73.9678125 -20.44140625 101.5078125 -20.44140625 C101.5519511 17.63186843 101.58886107 55.70511887 101.60994316 93.77841184 C101.6124444 98.27919517 101.61503306 102.77997846 101.61767578 107.28076172 C101.61846271 108.62472884 101.61846271 108.62472884 101.61926554 109.99584681 C101.62795448 124.47976529 101.6437161 138.9636678 101.66211809 153.44757682 C101.68085925 168.32313633 101.69193812 183.1986875 101.69598949 198.07425833 C101.69872582 207.2440779 101.70735023 216.41385232 101.72364543 225.58365798 C101.73426442 231.88233656 101.73740207 238.180992 101.73481525 244.47967887 C101.73354157 248.10691921 101.7354139 251.73408098 101.74622345 255.36130714 C101.84645981 290.77048543 101.84645981 290.77048543 96.9453125 306.55859375 C96.6862915 307.39543701 96.42727051 308.23228027 96.16040039 309.09448242 C87.89045722 334.38978957 68.9093391 353.27293815 45.6953125 365.49609375 C19.99600153 378.44236318 -8.59333676 383.1411576 -37.14892578 382.94970703 C-39.9916985 382.93359652 -42.83305038 382.94969095 -45.67578125 382.96875 C-84.22063101 383.01332994 -120.94360938 372.85750863 -149.4921875 345.99609375 C-160.018529 335.18838778 -168.67031152 321.25231839 -171.56445312 306.33911133 C-171.8272406 304.99445549 -171.8272406 304.99445549 -172.09533691 303.62263489 C-172.22629761 302.94150131 -172.3572583 302.26036774 -172.4921875 301.55859375 C-163.17489538 300.22849005 -153.85648288 298.90662227 -144.53653336 297.5952673 C-140.20898984 296.98610022 -135.8818867 296.37409895 -131.55566406 295.75561523 C-127.38096734 295.15890028 -123.20528058 294.56963743 -119.02880096 293.98553658 C-117.43522328 293.76133117 -115.84202128 293.53443868 -114.24921417 293.30482292 C-112.01896443 292.98378196 -109.78757268 292.67230308 -107.55566406 292.36303711 C-105.65037933 292.0932328 -105.65037933 292.0932328 -103.706604 291.81797791 C-100.89477162 291.59107988 -99.08408534 291.51414066 -96.4921875 292.55859375 C-95.32421875 294.2734375 -95.32421875 294.2734375 -94.3046875 296.49609375 C-87.45896142 309.56331556 -76.86092682 316.155236 -63.203125 320.74609375 C-44.82452755 326.25437656 -22.27738582 325.55444187 -4.984375 316.93359375 C6.92260217 310.36422703 14.55090519 302.89648356 18.5078125 289.55859375 C20.37489523 280.78629611 20.8392248 272.20912482 20.921875 263.26171875 C20.94124115 261.94693542 20.9606073 260.6321521 20.9805603 259.27752686 C21.03130744 255.8253856 21.07123531 252.37320592 21.10870361 248.92089844 C21.14910906 245.38076733 21.2000322 241.84078801 21.25 238.30078125 C21.34607665 231.38683039 21.43069367 224.47278142 21.5078125 217.55859375 C20.5178125 217.55859375 19.5278125 217.55859375 18.5078125 217.55859375 C18.2603125 218.4196875 18.0128125 219.28078125 17.7578125 220.16796875 C11.31279349 237.65008282 -4.78205291 249.4452813 -20.8671875 257.30859375 C-47.70761119 268.94075394 -81.43168298 267.67660476 -108.45703125 257.21875 C-135.76472498 246.17447874 -156.72710066 225.56746047 -168.4921875 198.55859375 C-186.91626618 152.61583762 -187.50593501 93.44891669 -168.4921875 47.55859375 C-163.1471798 35.70007648 -156.95820823 24.476343 -148.4921875 14.55859375 C-148.07501465 14.06069336 -147.6578418 13.56279297 -147.22802734 13.04980469 C-128.44210368 -9.20932235 -101.69052302 -21.86792878 -72.8046875 -24.31640625 C-45.42307251 -25.30178607 -20.18069755 -19.76949211 0 0 Z M-79.4921875 58.55859375 C-98.06310503 80.66682891 -100.46109477 111.71841062 -98.26953125 139.36767578 C-96.18036451 158.96097018 -89.57858388 176.44735364 -75.4921875 190.55859375 C-74.91597656 191.14640625 -74.33976562 191.73421875 -73.74609375 192.33984375 C-64.18133903 201.33117193 -51.32937354 203.95692062 -38.6171875 203.87109375 C-37.73804687 203.8654541 -36.85890625 203.85981445 -35.953125 203.85400391 C-29.3998303 203.73161434 -23.6035541 203.06043445 -17.4921875 200.55859375 C-16.5228125 200.17960938 -15.5534375 199.800625 -14.5546875 199.41015625 C1.49574803 192.32667322 10.17739425 178.57602486 16.3203125 162.80859375 C25.90383289 133.44287418 24.51199403 98.60065022 11.1015625 70.625 C2.74791153 55.75086035 -9.20025405 46.18068976 -25.4921875 41.55859375 C-46.1917884 37.32214693 -65.06004978 43.33565396 -79.4921875 58.55859375 Z " fill="#101010" transform="translate(3202.4921875,320.44140625)"/>
<path d="M0 0 C27.06 0 54.12 0 82 0 C83.49895321 4.49685962 84.71807624 8.76960531 85.78356934 13.36711121 C85.9512927 14.0872653 86.11901607 14.80741939 86.29182196 15.54939634 C86.85029211 17.95051456 87.40463905 20.35256508 87.95898438 22.75463867 C88.35972931 24.48155207 88.76072137 26.20840813 89.16194153 27.93521118 C90.24933315 32.61870671 91.33307323 37.30304016 92.41601753 41.98756576 C93.5517381 46.89823348 94.69033645 51.80823402 95.82849121 56.71833801 C97.74042491 64.96873132 99.64995771 73.21967759 101.55810547 81.47094727 C103.75991446 90.99192729 105.96564719 100.51199178 108.17347288 110.03157824 C110.30092513 119.20508815 112.42542958 128.37927841 114.54866028 137.55376625 C115.45033488 141.4496339 116.35305481 145.34525709 117.25663757 149.2406826 C118.3227659 153.83741585 119.38630563 158.43474072 120.44791222 163.03252029 C120.83641154 164.71323588 121.22577954 166.39375095 121.61611366 168.07404137 C123.61515149 176.68190595 125.5501172 185.2784781 127 194 C127.66 194 128.32 194 129 194 C129.17898582 192.31799248 129.17898582 192.31799248 129.36158752 190.602005 C129.96962038 185.76554653 131.05704974 181.09845976 132.21459961 176.36791992 C132.55234358 174.96469404 132.55234358 174.96469404 132.89691067 173.53312016 C133.64459085 170.43122259 134.3984736 167.33086723 135.15234375 164.23046875 C135.68566902 162.02294332 136.21858857 159.81531984 136.75112915 157.60760498 C138.17962721 151.69004869 139.61334209 145.77376779 141.04802322 139.85770798 C142.53050473 133.74061129 144.00821087 127.62236178 145.48608398 121.50415039 C147.27219715 114.11074885 149.05858084 106.71741379 150.84700012 99.3245697 C154.47914966 84.30874703 158.0970807 69.28961125 161.6953125 54.265625 C161.90894251 53.37384867 162.12257252 52.48207233 162.34267616 51.56327248 C164.13480077 44.081938 165.92592545 36.60036475 167.71481323 29.11825562 C168.60555529 25.39283082 169.49747835 21.66769071 170.39027023 17.94275665 C170.86326263 15.96766729 171.33480857 13.9922317 171.80630493 12.01678467 C172.22231461 10.28165619 172.22231461 10.28165619 172.64672852 8.51147461 C172.88585464 7.51151962 173.12498077 6.51156464 173.37135315 5.48130798 C174 3 174 3 175 0 C201.73 0 228.46 0 256 0 C260.269375 17.5415625 260.269375 17.5415625 264.625 35.4375 C273.02969475 69.93460239 281.51554431 104.41111261 290.05979919 138.87390232 C291.17449981 143.37023341 292.28864629 147.86670158 293.40234375 152.36328125 C293.61149162 153.2076795 293.8206395 154.05207775 294.03612518 154.92206383 C297.09194064 167.2654372 300.10353086 179.61809613 303 192 C305.40150181 185.29114362 307.14621986 178.54015071 308.70458984 171.59179688 C308.95724609 170.48235214 309.20990234 169.37290741 309.47021484 168.22984314 C310.30474079 164.56043695 311.1328358 160.88961085 311.9609375 157.21875 C312.55286946 154.6103809 313.14516707 152.00209747 313.73794556 149.3939209 C315.14615467 143.19431485 316.54979477 136.9936839 317.9517256 130.79265547 C319.49587319 123.9633819 321.0444836 117.13512378 322.5937953 110.30702019 C323.35695998 106.94356248 324.11992835 103.58006024 324.88287354 100.21655273 C325.10931939 99.21826179 325.10931939 99.21826179 325.3403399 98.19980335 C326.40531808 93.5045015 327.469645 88.80905231 328.53363037 84.11352539 C332.51048541 66.56318429 336.48995805 49.01344309 340.48436356 31.46708679 C341.05877371 28.94288706 341.63265112 26.41856604 342.20597458 23.89411926 C342.99346618 20.42713129 343.78284816 16.96057924 344.57275391 13.49414062 C344.921845 11.95457703 344.921845 11.95457703 345.27798843 10.38391113 C345.49156872 9.44853516 345.705149 8.51315918 345.92520142 7.54943848 C346.10981241 6.73804665 346.29442341 5.92665482 346.48462868 5.09067535 C347 3 347 3 348 0 C375.06 0 402.12 0 430 0 C427.54367503 10.43938112 425.05804247 20.79352374 422.2265625 31.125 C421.86679532 32.44634039 421.50729738 33.7677541 421.14804077 35.0892334 C420.37951101 37.91403613 419.6091961 40.73834319 418.83740234 43.56225586 C417.59048678 48.12468954 416.34771118 52.68824519 415.10546875 57.25195312 C413.5526849 62.95550057 411.99894494 68.6587859 410.44401169 74.36174774 C407.46407972 85.29151051 404.49196046 96.22338348 401.5234375 107.15625 C401.18298338 108.41010813 401.18298338 108.41010813 400.8356514 109.68929672 C399.91592059 113.07667326 398.99623141 116.46406109 398.07661629 119.85146904 C396.45610233 125.82056655 394.83492692 131.7894841 393.21337891 137.75830078 C388.97281532 153.36788671 384.7337421 168.97787233 380.50099754 184.58958054 C378.66765361 191.35147432 376.83395572 198.11327212 375 204.875 C374.80514889 205.59341316 374.61029778 206.31182632 374.40954208 207.05200958 C366.99600587 234.38364428 359.51280196 261.69540794 352 289 C323.62 289 295.24 289 266 289 C262.62402013 278.87206038 262.62402013 278.87206038 261.45141602 274.64599609 C261.18060211 273.67394226 260.90978821 272.70188843 260.63076782 271.70037842 C260.3414035 270.65198792 260.05203918 269.60359741 259.75390625 268.5234375 C259.4344101 267.37224426 259.11491394 266.22105103 258.78573608 265.03497314 C257.89637512 261.82663409 257.00941786 258.61765071 256.12382126 255.40827179 C255.55977696 253.36513634 254.99476132 251.32227181 254.42947388 249.27947998 C245.19459888 215.8998572 236.13335224 182.47252596 227.06804657 149.04653931 C225.86157063 144.59812013 224.65457115 140.14984306 223.44758987 135.70156097 C222.60517872 132.59560233 221.76378462 129.48936938 220.92245483 126.38311768 C220.41440964 124.51012045 219.90632483 122.63713397 219.39819336 120.76416016 C219.16820931 119.91380377 218.93822527 119.06344738 218.70127201 118.18732262 C217.86266369 115.09915898 217.01216742 112.03650225 216 109 C215.34 109 214.68 109 214 109 C213.73967342 109.95545259 213.73967342 109.95545259 213.47408772 110.93020725 C209.18112469 126.68602465 204.88713559 142.44156205 200.59210682 158.19681644 C198.51478875 165.81703587 196.4377816 173.43733974 194.36157227 181.05786133 C188.9169838 201.04110964 183.46586741 221.02256044 178 241 C177.6531591 242.26786095 177.30631821 243.53572189 176.94896698 244.84200287 C175.05004472 251.78092596 173.14711195 258.71872415 171.23731041 265.65466118 C170.67499358 267.69837338 170.1137877 269.74239161 169.55375099 271.78672981 C168.79908083 274.54028328 168.04021705 277.2926433 167.2800293 280.04467773 C167.0606262 280.84846548 166.84122311 281.65225323 166.61517143 282.48039818 C165.11444966 287.88555034 165.11444966 287.88555034 164 289 C161.35261911 289.09511266 158.73140999 289.12555635 156.08374023 289.11352539 C155.25454071 289.11367142 154.42534119 289.11381744 153.5710144 289.1139679 C150.81684802 289.11326851 148.06274839 289.10547493 145.30859375 289.09765625 C143.40430234 289.09579216 141.50001045 289.09436822 139.59571838 289.09336853 C134.57332037 289.08954263 129.55095108 289.07971173 124.52856445 289.06866455 C119.4077188 289.05845198 114.28686852 289.05387124 109.16601562 289.04882812 C99.11066443 289.03808953 89.0553346 289.02101224 79 289 C76.86176353 283.51137969 75.08552099 278.05289851 73.56860352 272.36425781 C73.22925876 271.11089725 73.22925876 271.11089725 72.88305855 269.83221626 C72.12804774 267.04015113 71.3785445 264.24663696 70.62890625 261.453125 C70.08198859 259.42703172 69.53468016 257.40104388 68.98701477 255.37515259 C67.80098759 250.98534604 66.61723635 246.59493458 65.4352417 242.20404053 C62.54033061 231.4509683 59.63340035 220.70114251 56.72718048 209.95112228 C55.86196429 206.75047351 54.99703 203.54974871 54.13217974 200.34900105 C48.60191574 179.88383894 43.03760554 159.42805879 37.45703125 138.9765625 C37.25732798 138.24465509 37.05762471 137.51274769 36.85186982 136.75866127 C33.09101354 122.97545789 29.32768356 109.1929302 25.5630188 95.4107666 C11.05369379 42.2924953 11.05369379 42.2924953 4.4453125 17.6953125 C4.21038967 16.82225338 3.97546684 15.94919426 3.73342514 15.0496788 C3.09183651 12.66387434 2.45202218 10.27760311 1.81298828 7.89111328 C1.62603519 7.19619404 1.43908211 6.5012748 1.24646378 5.78529739 C0 1.11558937 0 1.11558937 0 0 Z " fill="#101010" transform="translate(2248,300)"/>
<path d="M0 0 C216.51905738 0 216.51905738 0 256.1875 37.75 C280.13401432 62.66522444 290.2220942 95.86060424 290.25 129.8125 C290.25067474 130.54854462 290.25134949 131.28458923 290.25204468 132.04293823 C290.20318822 165.61645353 280.45237916 195.58374439 258 221 C257.40058594 221.68320312 256.80117187 222.36640625 256.18359375 223.0703125 C239.56278021 240.80396668 216.53500669 251.23550861 193.25 256.75 C192.43072021 256.94875732 191.61144043 257.14751465 190.76733398 257.35229492 C174.94590279 260.86666215 158.68504264 261.29968271 142.546875 261.1953125 C140.97867985 261.19235749 139.41048269 261.19032608 137.84228516 261.18920898 C132.14482591 261.17889053 126.4474094 261.15097044 120.75 261.125 C101.56875 261.063125 101.56875 261.063125 82 261 C82 301.92 82 342.84 82 385 C54.94 385 27.88 385 0 385 C0 257.95 0 130.9 0 0 Z M82 68 C82 109.91 82 151.82 82 195 C137.97693794 199.06523962 137.97693794 199.06523962 188.44140625 177.8203125 C199.67378765 166.22682239 205.06204997 150.94515058 206 135 C206.04125 134.319375 206.0825 133.63875 206.125 132.9375 C206.63453791 115.6132112 201.4623973 98.58160559 189.8203125 85.5625 C177.506377 73.61192653 160.84417937 67.85533178 143.87133789 67.88647461 C142.84416106 67.88629381 142.84416106 67.88629381 141.79623318 67.88610935 C139.60500647 67.88684884 137.41386751 67.89443258 135.22265625 67.90234375 C133.85966025 67.90381616 132.49666368 67.90483503 131.13366699 67.90539551 C126.10993597 67.91061372 121.0862171 67.92457497 116.0625 67.9375 C99.2015625 67.9684375 99.2015625 67.9684375 82 68 Z " fill="#101010" transform="translate(1243,204)"/>
<path d="M0 0 C25.74 0 51.48 0 78 0 C78 48.51 78 97.02 78 147 C78.99 147 79.98 147 81 147 C81.25652344 145.97519531 81.51304687 144.95039063 81.77734375 143.89453125 C84.79195345 133.40010255 92.55889856 124.67236053 100 117 C100.55042969 116.37609375 101.10085937 115.7521875 101.66796875 115.109375 C115.92125121 99.48355423 138.85988285 93.38450784 159.3125 92.125 C188.28090903 90.85768828 214.58633868 98.11855538 236.60546875 117.265625 C254.83237972 134.33392613 265.80334405 160.369596 267.11389971 185.15399957 C267.29155519 191.10779341 267.25087983 197.06310436 267.22705078 203.01879883 C267.22648563 205.01083877 267.22680525 207.00287912 267.22793579 208.99491882 C267.22850626 214.36591565 267.21680176 219.73682195 267.20278788 225.10779786 C267.19022923 230.73451409 267.18910599 236.36123273 267.18673706 241.98796082 C267.18053732 252.62650433 267.16414698 263.26500641 267.14403808 273.90353173 C267.12163207 286.02209743 267.11067385 298.14066519 267.10064721 310.25924647 C267.07977934 335.17285919 267.04312203 360.08641517 267 385 C240.27 385 213.54 385 186 385 C185.96261719 371.91730469 185.92523437 358.83460938 185.88671875 345.35546875 C185.85644174 337.06574463 185.82541709 328.77603446 185.79101562 320.48632812 C185.73655521 307.32952137 185.68514102 294.17275338 185.65356445 281.01586914 C185.63055192 271.43318655 185.5971175 261.85060591 185.55129844 252.26800424 C185.52741017 247.19661574 185.50865259 242.12532794 185.50238609 237.05388451 C185.49631536 232.27435486 185.47624385 227.49508275 185.44572449 222.71564865 C185.43697607 220.96743754 185.43321501 219.21919272 185.43499184 217.47096062 C185.44637864 201.08864268 182.87019056 185.23187685 171.09765625 172.8125 C158.49726659 161.92501247 144.1920993 160.04611935 128.18261719 160.84033203 C115.62432635 161.75902579 103.22339303 167.50655207 94.70703125 176.84765625 C86.28098206 187.47180523 81.90813747 199.86969058 81.84178162 213.39680481 C81.83684364 214.13203281 81.83190566 214.8672608 81.82681805 215.62476844 C81.811487 218.0829326 81.80309437 220.54107074 81.79467773 222.99926758 C81.78509576 224.76353178 81.77508548 226.52779369 81.76467896 228.29205322 C81.7376585 233.07877996 81.71663345 237.86551653 81.69667697 242.65227723 C81.67479979 247.65579152 81.64741957 252.65927559 81.62062073 257.6627655 C81.57071728 267.13635371 81.52576973 276.6099587 81.48259836 286.08357972 C81.42397087 298.88616093 81.35769659 311.6887024 81.29184818 324.49124813 C81.18831022 344.66080531 81.09499663 364.8303966 81 385 C54.27 385 27.54 385 0 385 C0 257.95 0 130.9 0 0 Z " fill="#101010" transform="translate(3351,204)"/>
<path d="M0 0 C28.05 0 56.1 0 85 0 C87.03070844 5.4152225 88.8626867 10.68239951 90.40991211 16.22680664 C90.74338575 17.40566956 90.74338575 17.40566956 91.08359623 18.60834789 C91.81810694 21.20804298 92.5477342 23.8090818 93.27734375 26.41015625 C93.80113462 28.2678045 94.32523033 30.12536682 94.84960938 31.98284912 C96.25731188 36.97250976 97.66080866 41.96334443 99.06351852 46.95441055 C100.5282246 52.1632595 101.99685183 57.37100261 103.46508789 62.57885742 C106.13686732 72.05778385 108.8054042 81.53761937 111.47250462 91.01786327 C114.23912006 100.85128696 117.00977402 110.68357031 119.78125 120.515625 C122.3187805 129.51813875 124.85592079 138.52076044 127.3894043 147.52441406 C128.16974547 150.29752988 128.95009479 153.07064341 129.73046875 155.84375 C129.91663946 156.5053286 130.10281017 157.1669072 130.29462242 157.84853363 C132.745776 166.55789885 135.20604915 175.26463411 137.67578125 183.96875 C138.21170147 185.8596102 138.74759163 187.75047892 139.28344727 189.64135742 C140.22250643 192.95483518 141.16474019 196.26738412 142.10913086 199.5793457 C142.50517498 200.97603753 142.90109945 202.3727633 143.296875 203.76953125 C143.63041992 204.94104736 143.96396484 206.11256348 144.30761719 207.31958008 C145 210 145 210 145 212 C145.66 212 146.32 212 147 212 C147.23636169 211.030625 147.47272339 210.06125 147.71624756 209.0625 C150.11222783 199.31271769 152.73848967 189.6478896 155.515625 180 C155.96095585 178.44511735 156.40603575 176.8901628 156.85089111 175.33514404 C157.81043344 171.98287412 158.77162006 168.63108188 159.73413086 165.27966309 C161.27917889 159.89976495 162.82055371 154.51881871 164.36132812 149.13769531 C166.04085987 143.27256405 167.72064339 137.40750547 169.40161133 131.54278564 C174.17736892 114.87993434 178.94203842 98.21392296 183.703125 81.546875 C183.97790349 80.58497725 183.97790349 80.58497725 184.25823307 79.60364723 C186.27804558 72.53300436 188.29768764 65.46231282 190.31726074 58.39160156 C193.82531568 46.10980468 197.33462264 33.82836551 200.84375 21.546875 C203.89109375 10.88117188 203.89109375 10.88117188 207 0 C235.38 0 263.76 0 293 0 C289.62499753 12.37500906 289.62499753 12.37500906 288.03320312 16.8996582 C287.67355469 17.92795242 287.31390625 18.95624664 286.94335938 20.01570129 C286.36811523 21.64181587 286.36811523 21.64181587 285.78125 23.30078125 C285.16636719 25.05360664 285.16636719 25.05360664 284.5390625 26.84184265 C283.42794131 30.00691645 282.31345824 33.17076645 281.19741821 36.33410645 C280.01354518 39.69244543 278.83418337 43.05236821 277.65429688 46.41210938 C275.47177818 52.62474098 273.28550846 58.83604437 271.09731293 65.04667854 C268.77115887 71.64888767 266.44791467 78.25211922 264.125 84.85546875 C261.80604895 91.44689359 259.48669728 98.03817645 257.16577148 104.62890625 C251.27832536 121.34989185 245.4156291 138.07947477 239.5625 154.8125 C239.34336945 155.43895416 239.12423889 156.06540833 238.89846802 156.71084595 C238.45572407 157.97657563 238.01298077 159.24230553 237.57023811 160.50803566 C236.46484709 163.66813604 235.35940188 166.82821746 234.25390625 169.98828125 C234.03521 170.6134325 233.81651375 171.23858376 233.59119034 171.88267899 C228.32862087 186.92507733 223.0509467 201.96216873 217.77160645 216.99868774 C213.20839616 229.99580596 208.64990448 242.994545 204.10513687 255.99812317 C203.39570921 258.02787973 202.68614172 260.05758736 201.97653198 262.08728027 C201.50713783 263.42993049 201.03774695 264.77258185 200.56835938 266.11523438 C200.33743151 266.77578575 200.10650364 267.43633713 199.86857796 268.11690521 C198.32456717 272.53388826 196.78225176 276.95146117 195.24023438 281.36914062 C191.24713956 292.80013659 187.2317393 304.22309115 183.15625 315.625 C182.80089676 316.62587646 182.44554352 317.62675293 182.079422 318.65795898 C171.3642216 348.50000624 154.40993131 373.96506702 125.18261719 387.90625 C112.01184616 393.88886161 97.53803025 397.11164629 83.07421875 397.203125 C82.33328476 397.21009399 81.59235077 397.21706299 80.82896423 397.22424316 C78.44841793 397.24156133 76.06810669 397.2479635 73.6875 397.25 C72.87698181 397.25100708 72.06646362 397.25201416 71.23138428 397.25305176 C59.55511874 397.24321131 48.37380698 396.87070528 37 394 C36.32275879 393.83419434 35.64551758 393.66838867 34.94775391 393.49755859 C30.91077535 392.49611556 26.88980151 391.48497832 23 390 C21.55752556 387.11505112 22.51066183 385.63476086 23.43115234 382.57226562 C23.76835297 381.43768921 24.10555359 380.30311279 24.45297241 379.13415527 C24.82685089 377.90394653 25.20072937 376.67373779 25.5859375 375.40625 C25.96231354 374.14864868 26.33868958 372.89104736 26.72647095 371.59533691 C27.52417256 368.93086002 28.32659705 366.26787 29.1328125 363.60595703 C30.16699202 360.19126322 31.19325727 356.77426039 32.21648216 353.35626984 C33.19119795 350.10131192 34.16970125 346.84750149 35.1484375 343.59375 C35.70318253 341.74843689 35.70318253 341.74843689 36.26913452 339.86584473 C36.61263947 338.73126831 36.95614441 337.59669189 37.31005859 336.42773438 C37.61285736 335.42560913 37.91565613 334.42348389 38.22763062 333.39099121 C39 331 39 331 40 329 C44.24011396 329.47112377 48.29174904 330.05983982 52.4375 331.0625 C63.03846625 333.20890893 75.51897665 333.86376545 85 328 C87.8971941 325.68726558 87.8971941 325.68726558 90 323 C90.66 322.278125 91.32 321.55625 92 320.8125 C94.86605661 316.78210789 96.93101892 312.48164673 99 308 C99.33644531 307.30390625 99.67289063 306.6078125 100.01953125 305.890625 C103.7666579 297.33554132 100.67768304 289.17743115 97.67578125 280.80859375 C97.33805191 279.84281906 97.00032257 278.87704437 96.65235901 277.88200378 C95.54798745 274.73062169 94.43031013 271.5841376 93.3125 268.4375 C92.53506379 266.22671823 91.75854495 264.01561365 90.98291016 261.80419922 C89.41007356 257.32424241 87.83214885 252.84613274 86.24951172 248.36962891 C84.25000746 242.71261116 82.26345757 237.0511822 80.28515625 231.38671875 C79.99879303 230.56690521 79.71242981 229.74709167 79.41738892 228.9024353 C78.8506206 227.27981471 78.2838783 225.65718503 77.71716309 224.0345459 C76.29975322 219.97913883 74.87815403 215.92520085 73.45703125 211.87109375 C69.81553848 201.4800436 66.18802678 191.08412976 62.5625 180.6875 C62.24884491 179.78811707 61.93518982 178.88873413 61.61203003 177.96209717 C60.02799393 173.41993114 58.44411039 168.87771194 56.86035156 164.33544922 C54.18635704 156.66636893 51.51182871 148.99747488 48.83694458 141.32870483 C48.23541631 139.60412515 47.63391502 137.87953606 47.03244019 136.15493774 C42.94591346 124.43793091 38.85532595 112.72234734 34.76171875 101.0078125 C17.73489296 52.28146598 17.73489296 52.28146598 9.30731201 28.0335083 C8.56624454 25.90191438 7.82459475 23.7705228 7.08233643 21.63934326 C6.06751262 18.72499382 5.05491151 15.80988209 4.04296875 12.89453125 C3.74616714 12.04350327 3.44936554 11.19247528 3.14356995 10.31565857 C2.87342575 9.53578079 2.60328156 8.75590302 2.32495117 7.95239258 C2.09152512 7.28081619 1.85809906 6.60923981 1.61759949 5.91731262 C0.99065421 3.97098636 0.49593917 1.9837567 0 0 Z " fill="#101010" transform="translate(1953,300)"/>
<path d="M0 0 C0.9384375 0.46019531 1.876875 0.92039062 2.84375 1.39453125 C10.01348103 5.04988569 15.99985541 9.66058562 22 15 C23.175625 16.03253906 23.175625 16.03253906 24.375 17.0859375 C39.54764833 31.2576125 48.39761403 52.05559 49.27168846 72.70597649 C49.40415273 78.10012092 49.3719655 83.49321861 49.34057617 88.88842773 C49.33972818 90.94972725 49.3402084 93.01102767 49.34190369 95.07232666 C49.34275833 100.62299533 49.32521925 106.17346632 49.30418181 111.72408938 C49.28532577 117.5416402 49.28365757 123.35919641 49.28010559 129.17677307 C49.27081122 140.1729747 49.24623297 151.16908599 49.21605712 162.16524798 C49.18243161 174.69255151 49.16600666 187.21985954 49.15097082 199.74719703 C49.11968091 225.49819285 49.06470168 251.24906496 49 277 C23.92 277 -1.16 277 -27 277 C-27 263.8 -27 250.6 -27 237 C-27.66 237 -28.32 237 -29 237 C-29.39638672 238.08861328 -29.39638672 238.08861328 -29.80078125 239.19921875 C-37.61312941 257.44499605 -55.17308201 269.76158233 -73 277 C-101.97416753 287.47426389 -137.68693775 285.39948082 -165.5793457 272.55834961 C-172.48028231 269.21155955 -178.3353924 265.14114551 -184 260 C-185.26457031 258.87464844 -185.26457031 258.87464844 -186.5546875 257.7265625 C-203.21005792 242.0836766 -209.10783942 221.38421625 -210.12890625 199.19921875 C-210.58251422 176.85146633 -205.01788624 155.97555291 -189.46362305 139.29931641 C-163.75120389 113.10697821 -124.54525502 109.29061354 -90.0625 105.4375 C-61.3962841 104.04920855 -61.3962841 104.04920855 -36 93 C-31.42286918 85.68711282 -31.93502244 77.0966783 -33.65625 68.859375 C-36.30528502 60.68390486 -40.87107603 54.63597474 -48.25 50.1875 C-61.99318766 43.40752742 -79.66554171 42.49109898 -94.36328125 46.95703125 C-107.13472911 52.0088484 -115.52955161 58.84443469 -122 71 C-122.68618535 72.9933876 -123.35548222 74.99275281 -124 77 C-138.06669988 76.40049393 -152.08359254 75.4365498 -166.11425781 74.27050781 C-169.41958029 73.99630166 -172.7253696 73.72832489 -176.03125 73.4609375 C-178.15367568 73.28682173 -180.27607267 73.11235586 -182.3984375 72.9375 C-183.86559708 72.81870483 -183.86559708 72.81870483 -185.36239624 72.69750977 C-189.95337694 72.31269456 -194.46687703 71.85605665 -199 71 C-198.25266023 50.07448641 -184.25866484 29.34563122 -169.35498047 15.46826172 C-125.85060191 -22.85066944 -50.37280907 -26.36269266 0 0 Z M-39.375 147.1875 C-52.57201637 151.51162218 -66.48455793 153.29892478 -80.15722656 155.51074219 C-105.64761677 159.34844532 -105.64761677 159.34844532 -125.80078125 174.26953125 C-131.8626082 182.9933538 -132.87060753 190.53121315 -132 201 C-129.95364694 209.4730078 -125.66346034 215.48242523 -118.3125 220.1875 C-111.02573607 224.32352351 -103.34272466 226.47055786 -95 227 C-94.2884375 227.05285156 -93.576875 227.10570312 -92.84375 227.16015625 C-74.84255159 227.85020219 -59.54110081 221.75024034 -45.9609375 210.27734375 C-37.60892345 202.49562141 -32.82402222 192.16859932 -31 181 C-30.91800267 178.20309744 -30.88339731 175.43263994 -30.90234375 172.63671875 C-30.9037587 171.84473587 -30.90517365 171.05275299 -30.90663147 170.23677063 C-30.91220543 167.72030781 -30.92475307 165.20393569 -30.9375 162.6875 C-30.94251837 160.97591275 -30.94708069 159.26432409 -30.95117188 157.55273438 C-30.96216632 153.36845492 -30.97941293 149.18424281 -31 145 C-34.01647969 145 -36.52582236 146.20031158 -39.375 147.1875 Z " fill="#101010" transform="translate(1892,312)"/>
<path d="M0 0 C26.73 0 53.46 0 81 0 C81 22.77 81 45.54 81 69 C98.82 69 116.64 69 135 69 C135 89.13 135 109.26 135 130 C117.18 130 99.36 130 81 130 C81.04033547 149.25462562 81.09715785 168.50897363 81.18390274 187.76344109 C81.22365718 196.70427615 81.2560679 205.64502366 81.27099609 214.5859375 C81.28403129 222.38179379 81.31104347 230.17745713 81.35461307 237.97320473 C81.37718604 242.09836226 81.39291319 246.22328217 81.39188385 250.34850693 C81.39113476 254.23759406 81.40918447 258.12615677 81.44116783 262.01510811 C81.44963156 263.436384 81.45144089 264.85771896 81.44580269 266.27900887 C81.38110289 279.48171194 81.38110289 279.48171194 87.64484024 290.69726372 C95.1885298 296.81966869 104.78340821 296.5384975 114 296 C118.36111031 295.46971824 122.67916069 294.79203601 127 294 C128.46557817 297.43629243 129.47911186 300.72954822 130.23681641 304.38525391 C130.45689362 305.43629303 130.67697083 306.48733215 130.90371704 307.57022095 C131.13400604 308.69431366 131.36429504 309.81840637 131.6015625 310.9765625 C131.9635524 312.71986343 131.9635524 312.71986343 132.33285522 314.49838257 C132.84097654 316.95061304 133.346835 319.40331333 133.85058594 321.85644531 C134.62377905 325.61905843 135.40508464 329.37992001 136.1875 333.140625 C136.68016929 335.52333793 137.17237281 337.90614723 137.6640625 340.2890625 C137.89839996 341.41720367 138.13273743 342.54534485 138.37417603 343.70767212 C138.58794891 344.75240692 138.8017218 345.79714172 139.02197266 346.87353516 C139.21135406 347.7933316 139.40073547 348.71312805 139.59585571 349.66079712 C140 352 140 352 140 355 C107.86465247 365.17791554 68.91213917 367.33128009 38 352 C19.80078663 341.99155467 8.49653141 327.24776237 2.45727539 307.59277344 C0.57104857 301.03769336 -0.12543682 294.69854521 -0.12025452 287.8941803 C-0.12110894 287.21441318 -0.12196337 286.53464607 -0.12284368 285.83427995 C-0.12447969 283.57577173 -0.11900816 281.31733918 -0.11352539 279.05883789 C-0.11324309 277.4322103 -0.1134021 275.80558259 -0.1139679 274.17895508 C-0.11425418 269.7766062 -0.10838469 265.37428471 -0.10139394 260.97194219 C-0.09513235 256.36617882 -0.09455438 251.76041479 -0.09336853 247.15464783 C-0.09026348 238.43900536 -0.08206124 229.72337547 -0.07201904 221.00773853 C-0.06083223 211.08273653 -0.05534098 201.15773391 -0.05032361 191.23272717 C-0.03987794 170.82180954 -0.02154273 150.41090914 0 130 C-13.2 130 -26.4 130 -40 130 C-40 109.87 -40 89.74 -40 69 C-26.8 69 -13.6 69 0 69 C0 46.23 0 23.46 0 0 Z " fill="#111111" transform="translate(3684,231)"/>
<path d="M0 0 C26.73 0 53.46 0 81 0 C81 127.05 81 254.1 81 385 C54.27 385 27.54 385 0 385 C0 257.95 0 130.9 0 0 Z " fill="#101010" transform="translate(1568,204)"/>
<path d="M0 0 C0.73226807 0.00008057 1.46453613 0.00016113 2.21899414 0.00024414 C18.90585666 0.17167833 18.90585666 0.17167833 24.9375 3.1875 C24.9375 26.9475 24.9375 50.7075 24.9375 75.1875 C18.6675 74.1975 12.3975 73.2075 5.9375 72.1875 C-13.01611731 70.32085587 -31.38872217 71.63993379 -46.9765625 83.63671875 C-49.0625 85.1875 -49.0625 85.1875 -51.2109375 86.14453125 C-53.57404039 87.47564617 -53.98204284 88.73937554 -55.0625 91.1875 C-55.9775614 92.39237557 -56.91665814 93.5792552 -57.875 94.75 C-64.81171399 103.85761714 -68.2918583 114.39862445 -68.3409729 125.79321289 C-68.3467653 126.51466995 -68.3525577 127.23612701 -68.35852563 127.97944641 C-68.37539705 130.37306298 -68.37839092 132.76648525 -68.38134766 135.16015625 C-68.39065473 136.88545701 -68.40082456 138.61075329 -68.41178894 140.33604431 C-68.43901511 145.00276766 -68.45421641 149.66946093 -68.46721697 154.33624268 C-68.48287989 159.21963944 -68.50966001 164.1029751 -68.5352478 168.98632812 C-68.58197969 178.22606453 -68.61875083 187.4658125 -68.65192068 196.70560646 C-68.69734009 209.19670342 -68.75819233 221.68772466 -68.81816864 234.17875862 C-68.91220701 253.84830106 -68.98566549 273.51786541 -69.0625 293.1875 C-95.7925 293.1875 -122.5225 293.1875 -150.0625 293.1875 C-150.0625 197.8175 -150.0625 102.4475 -150.0625 4.1875 C-124.3225 4.1875 -98.5825 4.1875 -72.0625 4.1875 C-72.0625 21.0175 -72.0625 37.8475 -72.0625 55.1875 C-71.4025 55.1875 -70.7425 55.1875 -70.0625 55.1875 C-69.92714844 54.62804687 -69.79179687 54.06859375 -69.65234375 53.4921875 C-64.56240933 34.53446768 -53.30660215 18.95386957 -36.375 8.9375 C-25.16552521 2.57899836 -12.84731158 -0.01336869 0 0 Z " fill="#101010" transform="translate(2854.0625,295.8125)"/>
<path d="M0 0 C0.07927734 0.94576904 0.15855469 1.89153809 0.24023438 2.8659668 C3.82094863 44.65593282 11.53150075 85.4071874 22 126 C22.18671265 126.72644714 22.37342529 127.45289429 22.5657959 128.20135498 C31.10631277 161.30754216 42.21409956 193.71168148 56 225 C56.71639648 226.62905273 56.71639648 226.62905273 57.44726562 228.29101562 C78.40089259 275.55718093 104.4939593 321.24083792 139.66015625 359.44140625 C141.66905848 361.63811903 143.62514113 363.86549369 145.5625 366.125 C151.82786782 373.31693631 158.69393771 379.87870457 166 386 C166.53447754 386.45358887 167.06895508 386.90717773 167.61962891 387.37451172 C206.42527584 420.20037527 253.15863584 441.27403413 304.5 441.1875 C305.57412643 441.18609512 305.57412643 441.18609512 306.66995239 441.18466187 C317.24564656 441.15466052 327.55532325 440.85305073 338 439 C338.8854248 438.8546582 339.77084961 438.70931641 340.68310547 438.55957031 C354.71957784 436.22210225 367.95620469 432.69322475 381.31787109 427.77124023 C382.93363037 427.19031616 382.93363037 427.19031616 384.58203125 426.59765625 C386.00866089 426.06410522 386.00866089 426.06410522 387.46411133 425.51977539 C390 425 390 425 392.20605469 425.72949219 C394.96841508 427.68585085 396.59225771 430.40755643 398.4375 433.1875 C412.12826666 452.9664626 429.56260159 470.85241928 449 485 C450.14994831 485.85649066 451.29968589 486.71326433 452.44921875 487.5703125 C460.63840904 493.61019951 469.13293211 499.0131594 478 504 C478.7719873 504.4345752 479.54397461 504.86915039 480.33935547 505.31689453 C544.89843092 541.25397134 622.94260152 551.0447178 694 531 C731.22632883 520.28215545 765.32839756 499.87891441 794.87597656 475.13696289 C795.49182617 474.62383545 796.10767578 474.11070801 796.7421875 473.58203125 C797.54438721 472.90491089 797.54438721 472.90491089 798.36279297 472.21411133 C800.15282996 470.88666517 801.98396382 469.94116394 804 469 C793.0482491 482.18497906 780.59350356 494.55425464 767 505 C765.94722887 505.87234444 764.8979798 506.74895018 763.8515625 507.62890625 C747.36154013 521.38147298 729.10820693 533.22230816 710 543 C709.27103516 543.37672852 708.54207031 543.75345703 707.79101562 544.14160156 C680.93540196 557.87325781 651.92014057 566.44390435 622 570 C620.95066284 570.14139404 620.95066284 570.14139404 619.88012695 570.28564453 C549.49916143 578.78947242 472.66945581 556.11974688 417.04296875 512.69140625 C414.32660914 510.49932304 411.65301451 508.26822614 409 506 C408.22785156 505.34 407.45570313 504.68 406.66015625 504 C394.88877403 493.65841962 383.45072246 482.52092086 374 470 C373.55285645 469.40799805 373.10571289 468.81599609 372.64501953 468.20605469 C367.45613558 461.30729665 362.49250727 454.37692855 358 447 C357.34217529 447.16604736 356.68435059 447.33209473 356.0065918 447.50317383 C298.26439736 461.98014979 241.41649144 459.89086654 189.03662109 429.00854492 C162.26689505 412.8112315 136.49512227 391.29350258 117.08984375 366.6484375 C114.87930775 363.84704795 112.57072147 361.14810268 110.25 358.4375 C56.79745913 294.24488137 23.42752847 210.95883066 -9.4375 66.4375 C-9.5574231 65.72012665 -9.67734619 65.0027533 -9.80090332 64.26364136 C-12.18289858 49.8717595 -14.36329208 35.43046158 -14.3125 20.8125 C-14.32861328 19.84248047 -14.34472656 18.87246094 -14.36132812 17.87304688 C-14.36501296 12.48949701 -14.05372003 8.63630486 -11 4 C-7.45566711 0.78794832 -4.8334619 0 0 0 Z " fill="#2D4551" transform="translate(14,203)"/>
<path d="M0 0 C26.73 0 53.46 0 81 0 C81 95.37 81 190.74 81 289 C54.27 289 27.54 289 0 289 C0 193.63 0 98.26 0 0 Z " fill="#111111" transform="translate(2904,300)"/>
<path d="M0 0 C14.87344485 3.21204007 29.47092909 7.42856487 44.09963989 11.58874512 C51.1967914 13.60700998 58.29754575 15.61254866 65.39800453 17.61914062 C67.05882655 18.08853515 68.71961194 18.55805933 70.38036156 19.02770996 C88.28025214 24.08958825 106.19767264 29.08765978 124.11963654 34.07073593 C128.23073673 35.2138709 132.34167845 36.35757548 136.45263672 37.5012207 C138.11964863 37.96496295 139.78666117 38.42870298 141.45367432 38.8924408 C142.28317848 39.12319746 143.11268265 39.35395412 143.9673233 39.59170341 C146.49412998 40.29459571 149.02095952 40.99740576 151.54779053 41.70021057 C171.11811308 47.14383905 190.68433711 52.60215105 210.25 58.0625 C211.13861599 58.31047836 212.02723198 58.55845673 212.94277573 58.81394958 C251.30191755 69.51858283 289.65253752 80.25361074 328 91 C327.04779239 92.11958395 326.09434579 93.23811421 325.14038086 94.35620117 C324.60956406 94.97919601 324.07874725 95.60219086 323.53184509 96.24406433 C317.92592737 102.67006063 311.23593148 107.7153346 304.1875 112.4375 C303.55336182 112.86264893 302.91922363 113.28779785 302.26586914 113.72583008 C293.80631582 119.25488415 293.80631582 119.25488415 289.02539062 118.58026123 C287.91357422 118.2634137 286.80175781 117.94656616 285.65625 117.62011719 C285.03227703 117.44700799 284.40830406 117.27389879 283.76542282 117.09554386 C281.67245421 116.51082496 279.58662055 115.90382532 277.5 115.296875 C275.99301013 114.87113116 274.48561273 114.4468276 272.97784424 114.02384949 C269.70997696 113.1038731 266.44513829 112.17402615 263.18225098 111.23654175 C257.92107751 109.72503127 252.65394703 108.23507957 247.38574219 106.74829102 C240.81031855 104.89105742 234.23643582 103.02853296 227.66430283 101.159688 C215.02031516 97.56487213 202.3646201 94.01308109 189.703125 90.48046875 C188.7378784 90.21112267 187.7726318 89.94177658 186.7781353 89.66426849 C182.87017299 88.57386093 178.96216077 87.48363263 175.05405331 86.39374542 C164.30127453 83.39483259 153.55099989 80.38698088 142.80078125 77.37890625 C139.91511042 76.5715467 137.02943109 75.7642175 134.14375019 74.95689392 C132.24173366 74.42476875 130.33971987 73.89263379 128.43770885 73.36048889 C121.07368261 71.30022397 113.70942054 69.2408031 106.3450985 67.1815958 C99.45905606 65.25608241 92.57318298 63.32996426 85.6874485 61.40334988 C81.73895362 60.29857412 77.79040318 59.19399831 73.8416748 58.09005737 C73.10279337 57.8834357 72.36391193 57.67681402 71.60264015 57.46393108 C70.14175769 57.0555009 68.68080955 56.64730554 67.21979332 56.23935413 C63.7446659 55.26829578 60.27124424 54.29187691 56.80130005 53.30244446 C50.86074916 51.6123859 44.92287643 49.95718217 38.92348003 48.48702812 C36.95183976 48.00138668 34.98489788 47.49999864 33.01856995 46.99331665 C30.61343651 46.37856866 28.20039693 45.79359433 25.77915955 45.24569702 C19.86140735 43.69732668 16.62665665 42.36573137 13.37158203 37.03271484 C12.54100505 35.37460692 11.74822272 33.69686262 11 32 C10.60348236 31.18897827 10.20696472 30.37795654 9.7984314 29.5423584 C8.74340561 27.38405382 7.76909982 25.20356151 6.8125 23 C6.47154297 22.22253418 6.13058594 21.44506836 5.77929688 20.64404297 C0 7.25496592 0 7.25496592 0 0 Z " fill="#2D4551" transform="translate(460,445)"/>
<path d="M0 0 C1.29907992 3.89723976 0.43595751 5.59084441 -0.7734375 9.5 C-1.18581334 10.85749647 -1.59816575 12.21500007 -2.01049805 13.57250977 C-2.23264984 14.29221954 -2.45480164 15.01192932 -2.6836853 15.75344849 C-3.86987489 19.60818501 -5.0198701 23.47361876 -6.16796875 27.33984375 C-6.40576553 28.14034653 -6.64356232 28.9408493 -6.88856506 29.76560974 C-21.4535104 79.09721171 -30.75082585 129.86556477 -36 181 C-36.11182617 182.06605469 -36.22365234 183.13210938 -36.33886719 184.23046875 C-39.12560183 211.13080946 -39.13253791 237.97358944 -39.06866455 264.98626709 C-39.05829045 269.84761109 -39.05383725 274.70896053 -39.04882812 279.5703125 C-39.03821984 289.04688899 -39.02123536 298.52344176 -39 308 C-49 311.33333333 -59 314.66666667 -69 318 C-69.92288964 263.47040644 -67.3137286 209.81475435 -58.31518555 155.91156006 C-57.87164676 153.22155398 -57.45985697 150.52687508 -57.046875 147.83203125 C-52.37924423 118.25976749 -45.22989307 88.89811373 -36.98352051 60.13578796 C-35.54833998 55.08632407 -34.24875775 50.01609416 -33.01179504 44.91459656 C-32.1122209 41.25396447 -31.15349754 37.61023584 -30.18496704 33.96731567 C-29.73618932 32.22792962 -29.3116772 30.48206015 -28.91439819 28.73019409 C-27.15302745 21.02046182 -25.57246351 14.38760527 -18.7578125 9.74755859 C-14.9622366 7.50233905 -11.04400752 5.63065734 -6.99536133 3.88998413 C-4.53257941 2.79151801 -2.26753146 1.45537918 0 0 Z " fill="#BF4B40" transform="translate(385,128)"/>
<path d="M0 0 C26.19002914 -0.64713735 49.90307171 9.22368527 69.4375 26.12109375 C70.12199219 26.70375 70.80648437 27.28640625 71.51171875 27.88671875 C89.85303595 44.81716539 101.63585098 72.63027422 104.4375 97.12109375 C104.1442571 98.46381393 103.81814891 99.80048961 103.4375 101.12109375 C98.04212094 99.95416112 92.67897571 98.69630095 87.32421875 97.35522461 C85.50679852 96.91324061 83.68336115 96.49519553 81.85449219 96.10327148 C65.85931325 92.64757702 65.85931325 92.64757702 61.14160156 86.18115234 C58.94919658 82.65968422 57.19936793 78.99006049 55.49368286 75.21466064 C46.05673187 56.50872542 26.47916224 43.3150622 7.4375 36.12109375 C-1.94827092 33.11878153 -11.66370353 30.37868325 -21.5625 30.12109375 C-22.25601563 30.08242188 -22.94953125 30.04375 -23.6640625 30.00390625 C-40.98696699 29.43697483 -57.1944561 34.7595771 -72.06762695 43.17407227 C-77.29146724 46.12109375 -77.29146724 46.12109375 -80.5625 46.12109375 C-61.78374809 22.86945014 -37.94080494 3.95165389 -7.3125 0.37109375 C-4.87574219 0.20677291 -2.43950726 0.11528159 0 0 Z " fill="#2C4551" transform="translate(798.5625,328.87890625)"/>
<path d="M0 0 C0.63647461 0.20898926 1.27294922 0.41797852 1.92871094 0.63330078 C27.44636883 9.21417566 46.71268277 28.34286653 59 52 C65.37576527 65.13762434 70.29160311 80.35979757 71 95 C65.99053197 94.38205642 61.24178213 93.36102039 56.38671875 91.96875 C55.69109329 91.77277222 54.99546783 91.57679443 54.27876282 91.37487793 C52.82187683 90.96347178 51.36559787 90.54991032 49.90991211 90.13427734 C47.67767662 89.4971964 45.44352802 88.86721315 43.20898438 88.23828125 C41.78894615 87.83634835 40.36902012 87.43401879 38.94921875 87.03125 C38.28153976 86.84268433 37.61386078 86.65411865 36.9259491 86.45983887 C32.23276794 85.11638397 32.23276794 85.11638397 30 84 C29.07304531 82.23465317 28.20849858 80.43634607 27.375 78.625 C16.27206752 55.93522998 -3.67566379 38.59992323 -27.375 30.125 C-51.66338479 22.71281077 -76.67091698 23.06419683 -99.6171875 34.80859375 C-102.77039114 36.49755918 -105.88656841 38.23927017 -109 40 C-110.3280323 40.67716499 -111.65905639 41.34877619 -113 42 C-107.33598132 29.700988 -93.30801094 17.98045836 -82 11 C-80.97648437 10.34386719 -79.95296875 9.68773437 -78.8984375 9.01171875 C-55.39547621 -5.33319211 -26.23246449 -8.78979238 0 0 Z " fill="#2C4551" transform="translate(545,248)"/>
<path d="M0 0 C7.56394522 6.0569523 12.76357775 14.05379462 14.9140625 23.5078125 C16.00637448 35.85347816 14.77451649 46.72673009 6.66015625 56.6015625 C-1.88930766 65.93520543 -11.5444753 71.82145732 -24.3984375 72.74609375 C-38.85702071 73.03710337 -50.50860153 69.73875606 -61.1171875 59.55859375 C-69.55235205 50.46219808 -72.62618614 40.47750497 -72.390625 28.13671875 C-71.43252851 16.72554385 -66.4127723 8.50512466 -58.2109375 0.73046875 C-41.06305942 -13.30935643 -17.54051612 -12.54771003 0 0 Z " fill="#101010" transform="translate(2973.0859375,191.4921875)"/>
<path d="M0 0 C1.80589924 3.61179849 2.84013317 6.70644699 3.8828125 10.58203125 C4.24422907 11.90823077 4.6060627 13.23431669 4.96826172 14.56030273 C5.1564447 15.25372772 5.34462769 15.94715271 5.53851318 16.66159058 C15.46575873 53.0692393 29.42369484 87.2599548 50 119 C47.54147311 121.45852689 45.54489944 121.99076232 42.25 123.09375 C41.08339844 123.48433594 39.91679687 123.87492188 38.71484375 124.27734375 C36.87599609 124.88255859 36.87599609 124.88255859 35 125.5 C33.80503906 125.90347656 32.61007812 126.30695313 31.37890625 126.72265625 C24.64091042 128.95881478 18.00919178 130.84525988 11 132 C-0.26206925 113.28231507 -8.8014645 93.59915052 -16 73 C-16.31565918 72.1023291 -16.63131836 71.2046582 -16.95654297 70.27978516 C-23.86965965 50.35982215 -28.53712496 29.77725026 -32 9 C-16.16 4.545 -16.16 4.545 0 0 Z " fill="#BF4B41" transform="translate(356,508)"/>
<path d="M0 0 C0.09498779 0.81227051 0.18997559 1.62454102 0.2878418 2.46142578 C2.24626908 19.04703848 4.43053051 35.53800175 7.33666992 51.98681641 C8.56063142 58.98325158 9.49403864 65.91384493 10 73 C6.1063907 74.1478954 2.21030674 75.28692593 -1.68823242 76.41796875 C-3.01282724 76.80358776 -4.3367337 77.19157979 -5.65991211 77.58203125 C-7.56699839 78.14433123 -9.47683703 78.69726937 -11.38671875 79.25 C-13.10701294 79.75273438 -13.10701294 79.75273438 -14.86206055 80.265625 C-17.71910119 80.93426098 -20.08421594 81.15283389 -23 81 C-25.87640032 60.69754472 -28.64330664 40.47189537 -30 20 C-47.418863 25.91040041 -63.17408518 34.11515114 -78 45 C-78.99 45.66 -79.98 46.32 -81 47 C-72.08102312 26.76252454 -40.24053714 13.62538032 -21 6 C-4.85722855 0 -4.85722855 0 0 0 Z " fill="#2D4551" transform="translate(346,436)"/>
<path d="M0 0 C-0.55901384 4.06528525 -1.4512717 7.47339814 -3.1171875 11.21875 C-3.55337402 12.21680664 -3.98956055 13.21486328 -4.43896484 14.24316406 C-4.91285645 15.31791992 -5.38674805 16.39267578 -5.875 17.5 C-9.96836644 26.99725203 -13.81235221 36.53843765 -17.375 46.25 C-18.05647095 48.0760376 -18.05647095 48.0760376 -18.75170898 49.93896484 C-21.11894337 56.35729724 -23.26918716 62.78979081 -25.14756775 69.36930847 C-33.97771198 100.28319592 -33.97771198 100.28319592 -43.84790039 106.84912109 C-49.07375358 109.66625969 -54.23651702 111.62356091 -60 113 C-57.82408608 104.43987139 -55.09082802 96.12804632 -52.125 87.8125 C-51.88934326 87.14958954 -51.65368652 86.48667908 -51.41088867 85.80368042 C-44.13552216 65.402431 -35.97396751 45.33150297 -27.125 25.5625 C-26.70927734 24.61640869 -26.29355469 23.67031738 -25.86523438 22.69555664 C-21.99581737 14.24462113 -16.06894072 3.78473422 -6.9375 0.1875 C-4.61287544 -0.03746367 -2.33378798 -0.06482744 0 0 Z " fill="#2D4551" transform="translate(422,28)"/>
<path d="M0 0 C-3.29318141 22.01231786 -12.82458144 39.7607793 -29 55 C-29.66 54.67 -30.32 54.34 -31 54 C-30.62488281 53.40574219 -30.24976563 52.81148438 -29.86328125 52.19921875 C-24.18290822 42.9990176 -20.1606078 34.05157675 -17.34765625 23.625 C-17.00643738 22.37783203 -17.00643738 22.37783203 -16.6583252 21.10546875 C-16.10226462 19.07120774 -15.55067545 17.03572537 -15 15 C-27.57986838 18.3035683 -40.15972281 21.6071897 -52.73956013 24.91087627 C-58.58279578 26.44541102 -64.42603599 27.97992844 -70.26928711 29.5144043 C-75.92330714 30.99918755 -81.57731454 32.48401889 -87.23131371 33.96888161 C-89.37311555 34.53135656 -91.51492171 35.09381507 -93.65673256 35.65625572 C-95.70065416 36.19299277 -97.74451213 36.72997222 -99.78830242 37.26720905 C-101.73987005 37.77926783 -103.69191106 38.28952641 -105.64445972 38.79783154 C-110.29144437 40.00998388 -114.92540474 41.25288783 -119.54501343 42.56582642 C-120.41911204 42.80960179 -121.29321066 43.05337717 -122.19379711 43.30453968 C-123.82938943 43.76202293 -125.46191573 44.23067486 -127.09048176 44.71257305 C-132.40251246 46.18325542 -132.40251246 46.18325542 -135.34565735 45.28056335 C-137.80647226 43.37574067 -139.91963149 41.31152057 -142 39 C-142 38.34 -142 37.68 -142 37 C-128.29956908 33.02487009 -114.56159958 29.24753041 -100.75390625 25.6640625 C-98.88274533 25.17637541 -97.01164807 24.68844407 -95.14060974 24.20028687 C-90.26536601 22.92889108 -85.38941158 21.66024479 -80.51324463 20.39239502 C-72.76647885 18.37770713 -65.02076761 16.35896839 -57.27512741 14.33995819 C-54.46397065 13.60744221 -51.65259794 12.8757592 -48.84121704 12.144104 C-40.43212133 9.95372713 -32.0272815 7.74983546 -23.63623047 5.49121094 C-22.92193721 5.29920042 -22.20764395 5.1071899 -21.47170544 4.90936089 C-18.20010728 4.02923038 -14.9299273 3.1445187 -11.66151428 2.25259399 C-10.54852463 1.95186981 -9.43553497 1.65114563 -8.28881836 1.34130859 C-6.85257362 0.94955948 -6.85257362 0.94955948 -5.38731384 0.54989624 C-3 0 -3 0 0 0 Z " fill="#2E4551" transform="translate(258,301)"/>
<path d="M0 0 C0.66 0.33 1.32 0.66 2 1 C-0.97 3.97 -3.94 6.94 -7 10 C-7 7 -7 7 -4.625 4.4375 C-3.75875 3.633125 -2.8925 2.82875 -2 2 C-1.34 1.34 -0.68 0.68 0 0 Z " fill="#1D9E23" transform="translate(440,1)"/>
</svg>
