<svg version="1.2" xmlns="http://www.w3.org/2000/svg" viewBox="0 0 180 180" width="180" height="180">
	<style>
		.s0 { fill: #ffffff } 
	</style>
	<path class="s0" d="m45.54 84.64c0.17-3.11-2.21-5.04-5.29-4.96 0.53-4.37 4.33-6.6 7.72-8.06q0.32-0.03 0.65-0.05c-0.57 5.48-0.14 10.19-2.19 14.93-1.52 3.49-6.89 3.43-6.59 8.81q0.01 0.22 0.03 0.45c0.77 7.16 8.58 8.62 9.66 14.92-11.58 5.87 2.53 30.54 11.68 16.05 1.64 0.23 3.1 0.97 5.14 0.26 0.95-0.52 1.14-0.95 1.5-2.04q1.64 0.85 3.27 1.69 0.09 0.2 0.18 0.41c-3 2.32-5.12 5.5-8.33 7.68q0.15-0.44 0.3-0.88-0.42-0.07-0.84-0.15-0.23 0.13-0.46 0.25-0.21 0.98-0.42 1.95c1.84 1.87 7.41-4.9 9.04-6.23-0.92 3.22-3.2 4.88-4.46 7.82q0.19 0.21 0.39 0.4c2.4-1.71 5.35-6.57 5.79-10.27q1.8 0.29 3.6 0.59c-4.51 6.09-16.1 19.47-22.19 23.04 0.92-2.9 2.4-5.12 3.15-7.5q-0.22 0.01-0.44 0.03-0.19-0.21-0.39-0.4c-1.48 2.91-3.92 4.95-4.36 8.88 0.31 0.48 0.64 0.74 0.97 1 7.25-1.21 19.34-19.37 25.13-24.33-1.57 15.66-9.98 18.11-17.29 27.6 6.64-3.3 10.66-11.72 16.34-16.4-0.63 6.55-2.19 21.19-6.12 23.79q0.32-0.03 0.65-0.05c4.41-2.74 4.66-13.97 6.13-19.72q0.32-3.02 0.63-6.04 3.14-4.41 6.29-8.81 0.23-0.13 0.46-0.25c0.7 2.2 3.89 4.59 7.34 3.95q1.24-0.52 2.47-1.03 3.12 1.15 6.22 2.32c0.82 8.92 0.51 13.92-5.16 20.71 5.79-2.95 7.91-14.31 5.99-20.34 13.45 1.55 12.91-2.98 10.36-12.76q1.18 0.02 2.36 0.04c-0.43-0.65-1.61-0.16-2.51-0.67-0.41-0.26-0.33-0.21-0.59-0.6 3.2-3.6 10.9-0.02 9.29 5.95 2.21-4.95-2.68-9.35-7.39-7.58 2.01-2.38 4.45-4.34 5.72-7.49q0.23-0.12 0.46-0.25 5.53 5.8 11.07 11.6 0.33-0.02 0.65-0.05 0.25-0.34 0.5-0.68-5.27-6.24-10.55-12.49 0.57-0.26 1.14-0.51c0.6-0.58 1.27-0.77 1.95-0.68q-0.3-0.15-0.57-0.28c5.66 0.57 12.88 5.27 18.78 3.75 0.54-0.94 0.57-1.45 0.24-2.37 6.29 0.16 17.59-1.94 21.19-4.99-9.67 2.03-20.56 2.72-29.44 1.53q-3.94-0.46-7.87-0.92-0.22 0.02-0.44 0.03 1.06-1.89 2.12-3.79c6.49-0.12 23.49-0.28 26.93-4.34q-0.38-0.51-0.76-1.01-1.48-0.22-2.97-0.43c-0.25 0.38-0.29 0.74-0.33 1.1q1.18 0.12 2.35 0.25c-5.1 1.28-19.3 3.99-23.93 2.41-0.49-0.59-0.13-2.64-0.11-4.12q0.01-0.44-0.03-0.79c6.66-1.99 11.61-6.46 13.64-13.21 1.16-3.86 0.39-8.94 2.89-11.35 1.6 0.14 1.93 0.82 3.1 1.27-0.62-0.86-1.51-1.34-2.62-1.73q-1.04 0.72-2.08 1.44c-1.91 0.73-3.91-1.19-7.14 0.31-2.63-2.24-4.11-5.79-7.66-7.14q-0.18-0.31-0.37-0.62 2.16-2.08 4.31-4.17c-1.41 1.18-2.85 2.57-4.28 3.96q-1.44-0.65-2.89-1.29-0.08-0.21-0.17-0.41c3.29-2.33 6.2-3.19 9.95-2.45q0.26 0.51 0.53 1.03c-0.17 0.3-0.32 0.38-0.47 0.46q-0.63-0.16-1.26-0.33c0.54 0.32 1.1 0.42 1.67 0.52q0.24-0.24 0.47-0.47 0.04-0.32 0.07-0.64c-0.81-0.73-1.06-1.25-2.66-1.3q0.38-0.57 0.76-1.13c-1.84 1.26-5.56 1.59-7.38 2.68q2.11-1.65 4.21-3.3 0.26-0.34 0.51-0.68-3.9 2.32-7.8 4.64c-1.67-0.12-3.44-0.89-4.34-1.82q-0.21 0.01-0.43 0.03 4.63-3.12 9.26-6.25-0.08-0.31-0.15-0.63-5.27 3.06-10.54 6.13-1.68-0.41-3.36-0.83 0.16-1.5 0.31-3.01 12.07-9.46 24.14-18.91 0.21-0.02 0.43-0.03-0.18-0.42-0.35-0.83c-0.89-0.43-4.56 2.54-5.95 3.43-5.34 3.42-10.07 7.68-15.32 10.77 2.17-2.75 6.14-5.49 6.79-9.5q-0.53-0.06-1.06-0.13-0.82 0.7-1.65 1.41 0.9-0.39 1.8-0.78c-1.16 3.52-6.44 9.83-9.4 11.83q-0.18-0.42-0.35-0.84c1.93-3.24 3.84-7.61 2.94-11.77q-0.81-0.48-1.62-0.95-0.87 0.06-1.74 0.13c1.12 0.43 1.87 0.54 2.69 1.08 0.52 4.04-1.47 6.77-2.55 10.04q-0.23 0.12-0.45 0.25c-0.72-1.32-0.67-1.96-2.14-2.2q-0.07-0.43-0.13-0.85 0.5-0.68 1-1.36 0.35-0.24 0.7-0.48c0.23 0.44 0.24 0.29 0.32 1.05 0.25-0.38 0.29-0.74 0.32-1.1q-0.4-0.18-0.82-0.36-1.08 1.15-2.17 2.3c-1.82-1.22-3.82-2.49-6.37-2.96 1.44-3 5.84-7.81 3.57-11.61-2.77-4.61-12.23 0.71-15.7 4.37q-0.7 0.75-1.04 1.36 0.34-0.27 1.04-0.8c3.42-2.55 12.53-8.63 14.5-3.77 2.07 2.72-1.89 7.95-2.98 10.07-3.68-0.37-7.54-0.73-11.51-0.65-4.01 0.08-8.13 0.6-12.31 1.98-2.01 0.66-10.59 5.79-10.92 5.73q-1.96-1.89-3.92-3.78-4.09-2.05-8.18-4.11-0.03 0.22-0.05 0.43-0.24 0.24-0.48 0.47 5.25 4.43 10.49 8.86-0.8 0.48-1.6 0.97c-4.32-3.26-7.29-5.24-13.71-6.91q-0.54 0.04-1.09 0.08c3.76 2.58 7.53 4.94 11.31 7.3q0.37 0.51 0.75 1.02c-2.69 1.13-3.83 3.48-6.11 4.94-3.56-1.69-6.85-3.22-11.16-4.53q-0.15 0.44-0.3 0.88 4.04 2.6 8.07 5.19 0.22-0.02 0.44-0.03-0.7 0.48-1.39 0.96c-0.65 2.16-1.91 4.66-2.96 7.71-4.02 3.26-9.24 3.07-10.04 9.73-1.29 0.35-2.2 0.46-3.37 1.31q-0.04 0.44-0.09 0.87c0.73 1.03 7.27 3.79 8.84 4.06q0.48-0.47 0.95-0.93zm3.63 1.56q0.23 0.7 0.46 1.39-0.54 0.03-1.07 0.05 0.13-0.71 0.25-1.43 0.18 0 0.36-0.01zm3.66 10.18c-0.95 0.87-1.69 1.45-2.25 2.77-0.79-0.64-1.19-1.91-1.44-3.34-0.28-1.54-0.37-3.27-0.58-4.56q0.03-0.32 0.07-0.65 0.55-0.05 1.1-0.08 1.4 2.64 2.8 5.29 0.15 0.28 0.3 0.57zm-1.43-13.06q0.18-1.19 0.37-2.38 0.04-0.24 0.07-0.48 0.18-0.01 0.36-0.02-0.4 1.44-0.8 2.88zm-0.76-12.95q2.52 0.68 5.03 1.36-0.01 0.12-0.02 0.23c-2.34 1.72-4.51 2.48-5.67 5.6q0.22-3.47 0.44-6.95 0.11-0.12 0.22-0.24zm4.7-7.2c-0.33 3.23 0.13 4.67 0.7 6.67 0.9 0.64 1.25 1.02 0.96 1.97-1.51-0.75-3.11-1.53-5.42-1.41q-0.09-0.1-0.18-0.19c0.66-2.55 1.92-4.12 2.9-6.14q0.52-0.45 1.04-0.9zm7.23-4.3q0.11-0.01 0.22-0.02c-0.69 2.39-0.97 7.89-2.19 10.08-2.86-1.36-2.81-7.23 0.4-9.55q0.79-0.25 1.57-0.51zm-2.67 17.67q1.21 1.31 2.41 2.62c-0.94 2.91-2.74 5.11-3.5 8.48q-0.71-0.06-1.43-0.11c-1.22-3.4 1.84-8.93 2.35-11.41q1.12 0.13 2.24 0.26 0.41 1.05 0.82 2.1-1.45-0.97-2.89-1.94zm6.61-17.69c-0.25 2.83 0.38 4.29 0.55 6.49q-2.14 1.07-4.27 2.15c0.36-3.61 1.09-5.98 2.08-8.52q0.82-0.06 1.64-0.12zm1.66-4.29q0.16-0.01 0.31-0.02-0.23 0.69-0.48 1.37-0.47 0.03-0.94 0.07 0.36-0.43 0.73-0.86 0.19-0.28 0.38-0.56zm0.31 13.18q-2.13 1.32-4.27 2.63c0.09-1.59 2.12-3.73 3.81-4.32q0.19 0.11 0.39 0.21 0.03 0.74 0.07 1.48zm2.85-9.91q-0.39 2.18-0.77 4.37-0.4 0.25-0.8 0.5-0.21 0.24-0.42 0.47c-0.78-1.08-0.97-3.74-0.8-5.76q1.39 0.21 2.79 0.42zm2.84-3.29q0 0.07-0.01 0.14-0.55 0.52-1.09 1.04c-0.73 0.28-0.82 0.27-1.74 0.24q0.19-0.71 0.39-1.42 1.22 0 2.45 0zm2.85-5.76q-0.63 1.44-1.27 2.88-2.21-0.16-4.42-0.32 0.01-0.12 0.02-0.23c1.82-0.84 3.41-1.84 5.67-2.33zm-2.3 7.47q0.24-0.14 0.47-0.27 0.2 0.72 0.41 1.43-0.72-0.13-1.43-0.27 0.28-0.45 0.55-0.89zm3.72 4.26c-1.69 0.66-4.03 0.47-5.39 1.22q-0.15-0.86-0.3-1.73 0.45-0.57 0.89-1.15 2.15 0.85 4.3 1.69 0.25-0.02 0.5-0.03zm-3.64 2.59q-0.96 0.03-1.93 0.07-0.06-0.3-0.12-0.61c1.36-0.55 3.64-0.6 5.69-0.83q-1.08 0.6-2.16 1.19-0.74 0.09-1.48 0.18zm5.07 0c-1.63 0.4-3.2 1.83-4.26 2.95-0.21-1.3 2.3-3.6 3.5-4.32 0.54 0.48 0.59 0.43 0.76 1.37zm2.84-17.2q-0.01 0.12-0.02 0.23-0.85 0.51-1.71 1.03-1.27 0.09-2.54 0.18 0.02-0.11 0.03-0.23 2.12-0.6 4.24-1.21zm-2.3 4.32q-0.27-0.41-0.54-0.81c1.28-1.08 4.12-0.48 5.69-0.32q-2.57 0.56-5.15 1.13zm12.74-4.24c2.38 0.19 4.55 0.76 6.2 1.78q0.22-0.01 0.44-0.02-0.13 0.18-0.26 0.37-1.14 0.33-2.28 0.67-2.05-0.29-4.1-0.59-4.51-0.64-9.01-1.29 0.01-0.09 0.02-0.18c2.91-0.67 6.1-0.98 8.99-0.74zm9.46-0.76q-0.25 0.34-0.5 0.68c-1.54-0.11-2.8-0.71-3.74-1.44q2.13 0.27 4.27 0.54-0.02 0.11-0.03 0.22zm7.58 5.32q0.59-0.22 1.18-0.45 0.61 0.53 1.23 1.06c-0.17 1.19-1.33 2.18-2.22 3.34q-0.34 0.02-0.68 0.05c-1.86-3.07-4.2-6.42-8.31-7.6q-0.09-0.19-0.18-0.37 0.83-0.34 1.66-0.67c2.79 0.97 5.12 2.45 7.71 3.3 0.33 0.8 0.23 0.53-0.39 1.34zm3.44 6.82q-0.16-0.16-0.33-0.32-0.35 0.03-0.7 0.05 0.58-0.56 1.18-1.11-0.08 0.69-0.15 1.38zm1.25 15.89c1.93 1.66 2.42 4.06 1.62 7.19q-1.24-2.78-2.48-5.56 0.41-0.62 0.81-1.24 0.03-0.2 0.05-0.39zm0.56-12.94q-0.01 0.13-0.02 0.27-0.5 0.57-1.01 1.15-0.2-0.38-0.39-0.76c0.61-1.09 0.17-0.51 0.97-0.62q0.22-0.02 0.45-0.04zm1.19-0.02q2.25 0.84 4.51 1.67-0.02 0.22-0.04 0.45-0.57 0.38-1.14 0.76-2.26-0.83-4.52-1.66 0.03-0.23 0.05-0.46 0.56-0.38 1.14-0.76zm8.78 5.76q-1.25-0.83-2.5-1.66-0.18-0.33-0.35-0.67c1.08-0.66 0.93-0.63 2.07-0.41q0.39 1.37 0.78 2.74zm1.42-0.55q-0.25 0.28-0.5 0.55c-0.61-0.31-0.72-0.71-0.92-1.44q0.65 0.28 1.3 0.56 0.06 0.17 0.12 0.33zm-1.06-4.11q-0.19 0.01-0.36 0.02 0.58-0.56 1.18-1.12-0.42 0.55-0.82 1.1zm6.75 7.24q-0.35 0.15-0.69 0.3-1.91-1.07-3.81-2.14-0.6-0.8-1.19-1.61c1.97-1.46 2.04 0.23 3.9 1.15q0.89 1.15 1.79 2.3zm1.42 1.26q-0.71-0.25-1.42-0.51 0.43-0.22 0.86-0.45 0.28 0.48 0.56 0.96zm-1.73 2.32c0.52 1.04 0.51 0.74 1.73 0.59q-1.09 0.94-2.18 1.88-1.04-1.98-2.09-3.96 0.01-0.13 0.03-0.25c1.54-0.33 2.03 0.22 3.53 0.45q0.29 0.46 0.58 0.92-0.79 0.19-1.6 0.37zm11.7 1.04c-2.9 13.57-3.46 14.31-13.7 20.14q-0.26-0.4-0.54-0.8 0.19-0.76 0.37-1.52c6.67-1.9 10.47-5.39 10.08-13.29q1.67-2.15 3.34-4.29 0.22-0.12 0.45-0.24zm-5.7 7.04c-0.77 0.66-1.27 0.88-2.73 1q0.59 0.06 1.17 0.13-0.01 0.1-0.02 0.2-2 0.85-4.01 1.7-0.05-2.57-0.1-5.13 1.38-1.63 2.76-3.27 0.26-0.11 0.51-0.24 1.21 2.81 2.42 5.61zm-1.42-7.87c7.86-2.19 6.34 1.97 2.83 5.14q-1.42-2.57-2.83-5.14zm-4.27 2.37q1.42-0.77 2.85-1.54c-0.57 1.27-1.31 1.94-2.19 2.87q-0.33-0.66-0.66-1.33zm11.73-1.54q-0.17-0.71-0.34-1.41 0.53-0.02 1.06-0.03-0.36 0.72-0.72 1.44zm-17.42 13.2q0.05-0.75 0.1-1.5 0.04-0.65 0.08-1.29 0.5-0.16 0.99-0.32 0.07-0.01 0.14-0.02c0.28 1.7 0 2.96-0.56 4.32-0.48-0.31-0.57-0.44-0.75-1.19zm-5.69 12.59q0.01-0.13 0.02-0.25 0.93-2.23 1.87-4.46 0.19-0.47 0.39-0.94 1.64 0.11 3.29 0.23 0.07 0.37 0.1 0.71c0.14 1.7-0.45 3.05-1.05 4.82q-2.31-0.05-4.62-0.11zm1.42 5.78q0.02-1.12 0.04-2.23 0.03-0.28 0.05-0.56 1.21 0.09 2.4 0.18l0.36-0.03q-0.83 1.36-1.65 2.73-0.6-0.05-1.2-0.09zm-1.41-9.32q0.07-0.03 0.15-0.07 0.56-0.29 1.13-0.58 0.07-0.01 0.13-0.02-0.09 0.3-0.17 0.6-0.33 1.14-0.66 2.28-0.3-1.01-0.59-2.03 0-0.09 0.01-0.18zm-2.22 7.17q-0.32-0.32-0.64-0.64c0.63 0.43 0.22 0.01 0.64 0.64zm-3.49-1.71c0.8-0.51 1.67-0.35 2.85-0.33q-0.18 0.57-0.35 1.15c-0.97 0.38-1.11 0.24-2.22 0.13q-0.13-0.48-0.28-0.95zm1.75 5.39q0.55 1.29 1.1 2.59-1.28 0.86-2.56 1.72c-0.76-1.03 0.07-3.95 1.46-4.31zm-2.81-9.04q-0.18 0.02-0.36 0.03 0.24-0.53 0.47-1.07-0.05 0.52-0.11 1.04zm4.1 0.4q-0.1-0.06-0.19-0.12 0.31-0.65 0.63-1.31 0.1 0 0.2-0.01 0.3 0.69 0.59 1.38-0.62 0.03-1.23 0.06zm9.85-18.71q-0.04-0.24-0.08-0.48c0.38-0.46 0.62-0.74 1.26-0.96q0.08 0.43 0.16 0.85-0.41 0.28-0.82 0.56-0.26 0.01-0.52 0.03zm-0.08 3.52c-0.26 0.34-0.71 0.53-1.04 0.8q-0.19-3.6-0.38-7.2 0.71 3.2 1.42 6.4zm-2.61 9.64c0.94-0.52 1.07-0.04 1.19 1.23q-1.43 0-2.85 0 0.03-0.23 0.05-0.45 0.8-0.39 1.61-0.78zm-1.4-3.98q0.32-0.27 0.65-0.54 0.26 0.46 0.52 0.93-0.12 0.25-0.25 0.51-0.59-0.07-1.18-0.14 0.13-0.38 0.26-0.76zm-0.26 3.82q-0.74 0.7-1.48 1.39-0.49-0.07-0.97-0.16-0.2 0.02-0.39 0.04 0.34-0.66 0.69-1.31 1.08 0.02 2.15 0.04zm-5.37-0.82c-0.59-0.41-0.16-0.35-0.27-0.66q0.13 0.33 0.27 0.66zm4.49-6.42q-2.4-1.24-4.81-2.49c0.22-3.29 0.63-7.07 0.3-10.46 3.71 1.34 7.03 7.35 4.51 12.95zm-3.39 0c1.19 0.62 1.12 1.19 2.76 1.69 0.29 1.07-0.15 1.49-0.83 2.63q-0.87-0.04-1.74-0.07c-0.37-1.9 0.02-2.99-0.19-4.25zm0.33 9.3c-0.6-0.41-0.17-0.35-0.28-0.67q0.13 0.34 0.28 0.67zm9.63-13.85q0.01-0.13 0.02-0.26 0.64-0.48 1.28-0.95c0.23 1.48 0.14 3.93-0.19 5.76-0.76-0.6-0.9-3.1-1.11-4.55zm0 4.55q0.44-0.72 0.86-1.44-0.25 0.7-0.5 1.41-0.18 0.02-0.36 0.03zm8.3-4.3q0.13-0.01 0.24-0.02c0.07 5.51-3.34 6.52-7.82 8.59q-0.36 0.03-0.72 0.05 1.4-2.89 2.8-5.78 2.75-1.42 5.5-2.84zm-8.3-4.7q-0.96 0.9-1.92 1.8-2.06-2.98-4.12-5.96-2.67-2.32-5.34-4.63 0.59-0.46 1.18-0.92c2.58 1.12 7.11 3.24 8.02 5.9 0.3 0.86-0.73 1.57-0.03 2.3 0.82 0.85 1.65 0.24 2.21 1.51zm-1.42-3.68q0.02-0.13 0.04-0.25 0.16-0.01 0.31-0.02 0.54 0.72 1.07 1.44c-0.82-0.4-0.95-0.49-1.42-1.17zm1.29-2.4q0.07 0.22 0.13 0.43-0.17 0.13-0.35 0.26-0.54-0.72-1.07-1.44 0.65 0.38 1.29 0.75zm-11.88 15.08q0.22 0.09 0.44 0.17 0.09 2.07 0.19 4.15-0.33-0.08-0.67-0.16c-0.62-0.46-1.06-2.6-0.49-3.53q0.27-0.32 0.53-0.63zm-3.15 7.21q0.23-0.01 0.46-0.01 0.24 0.56 0.47 1.12-0.36 0.14-0.73 0.29-0.34 0.01-0.69 0.02 0.25-0.71 0.49-1.42zm-1.3 23.01q-0.31-1.05-0.61-2.1 1.31-0.38 2.63-0.76 0.1-0.01 0.21-0.02-0.01 0.1-0.02 0.2-1.1 1.34-2.21 2.68zm-2.04-5.75c0.26-0.85 0.45-0.98 0.92-1.44q0.2 0.07 0.4 0.15 0.05 0.18 0.11 0.37-0.44 0.43-0.88 0.86-0.27 0.03-0.55 0.06zm0.67 1.43q-0.33-0.36-0.67-0.73 0.72-0.35 1.43-0.7-0.19 0.7-0.37 1.41-0.19 0.01-0.39 0.02zm-1.5 6.54q-0.29-0.25-0.59-0.49 0.22-0.01 0.44-0.03 1.1-0.85 2.2-1.7 0.1 0.87 0.21 1.73-0.84 0.58-1.68 1.15-0.29-0.33-0.58-0.66zm0.11 16.48c-3.42 0.14-5.47-0.73-8.27-0.98q-1.6-3.15-3.2-6.31-0.31-0.32-0.61-0.64c5.37-0.63 8.75-3.22 12.74-5.01 1.41 1.33 4.6 8.15 1.79 11.17-0.67 1.03-1.43 1.13-2.45 1.77zm-14.71-7.1q0.64-0.04 1.29-0.08c1.94 1.29 3.26 3.62 4.18 5.75q-2.84-0.82-5.69-1.64c0.42-1.44 0.6-2.9 0.22-4.03zm-4.09-5.43q3.21-0.93 6.41-1.85 5.04 0.49 10.09 0.98 0.09 0.26 0.18 0.51c-3.01 1.35-6.42 2.48-9.87 4.23-3.73 0.29-4.62-1.1-7.21-2.01q0.2-0.93 0.4-1.86zm-0.4 6.78q0.07-0.63 0.13-1.25 1.22-0.09 2.45-0.18c0.2 1.08 0.42 1.69 0.12 2.87q-1.35-0.72-2.7-1.44zm-2.85 2.25q0.48-0.26 0.96-0.53c1.17-0.77 2.05 0.26 3.31 0.67q-0.25 0.24-0.5 0.49-1.88-0.31-3.77-0.63zm2.77-2.25q-0.47-0.2-0.93-0.42-0.21-0.5-0.41-1.01 0.71 0.04 1.42 0.08-0.04 0.68-0.08 1.35zm-4.19 0q0.71 0.62 1.42 1.22c0 0.76-0.06 0.67-0.23 1.66q-0.59-1.43-1.19-2.88zm-3.69-5.39c1.34-0.41 3.12-0.32 5.11-0.36q-0.92 0.72-1.85 1.44-1.92-0.19-3.84-0.38 0.29-0.35 0.58-0.7zm-3.42-72.12c2.64-2.52 9.27-1.77 10.93-0.17q0.23-0.02 0.45-0.04c-2.21 2.05-5.63 2.29-7.74 4.33-1.64-1.1-3.01-1.8-3.64-4.12zm14.53 4.12q0.56 0.63 1.12 1.26-1.51 0.08-3.09 0.21c-2.35 0.2-4.68 0.55-6.3 1.39q-0.11 0.01-0.21 0.01-0.18-0.27-0.36-0.55c1.99-1.01 4.17-1.82 6.87-2.16q0.84-0.11 1.76-0.15 0.11-0.01 0.21-0.01zm5.55-7.2c1.84 1.84 4.58 2.93 5.53 5.76-3.86-1.79-9.8-1.77-12.81-4.62 2.66 0.57 4.91 0.36 7.28-1.14zm1.26 10.07q2.65 0.37 5.28 0.73 0.21-0.02 0.42-0.04-2.12 1.82-4.24 3.63c-0.66-1.33-0.82-3.14-1.46-4.32zm6.79 6.16q-0.55-0.08-1.09-0.17 0.71-0.11 1.42-0.23-0.17 0.2-0.33 0.4zm-1.09-3.44q0.65-0.64 1.3-1.28 0.06 0.72 0.12 1.44-0.47-0.1-0.95-0.2-0.24 0.02-0.47 0.04zm2.58 47.63q-0.32 0.01-0.63 0.03-0.27-0.26-0.53-0.51 0.2-0.27 0.41-0.54 0.5-0.2 1.01-0.39-0.13 0.7-0.26 1.41zm-1.14 2.63q0.26-0.31 0.53-0.61 0.02-0.28 0.04-0.55 0.42 0.65 0.83 1.31-0.71 0.06-1.42 0.12 0.01-0.13 0.02-0.27zm-0.56 4.59q-0.44-0.53-0.88-1.05 1.42-0.19 2.84-0.39l-1.35 1.4q-0.31 0.02-0.61 0.04zm0.54 4.32q-1.42-0.17-2.85-0.34 1-0.55 2.01-1.1 0.42 0.72 0.84 1.44zm-2-4.06q0.29 0.27 0.58 0.54-1.03 0.27-2.07 0.53-1.1 0.06-2.2 0.11 1.53-0.72 3.07-1.44 0.31 0.13 0.62 0.26zm-7.96-62.14c1.66 0.04 3.42 0.46 4.27 1.44-1.15-0.12-3.21 0.07-3.73-0.81q-0.27-0.32-0.54-0.63zm1.44 5.75c0.81 0.71 1.1 1.55 0.95 2.88-1.25-0.43-0.93-1.8-0.95-2.88zm1.4 9.08q0.02-0.13 0.05-0.25c2.83-0.61 3.45 0.37 2.15 1.25-1.11-0.15-1.62-0.57-2.2-1zm3.65 36.98q0.31 0.07 0.62 0.15-0.01 0.1-0.02 0.2-0.7 0.54-1.4 1.09 0.29-0.72 0.58-1.43 0.11-0.01 0.22-0.01zm-0.79-35.11q0.53-0.43 1.06-0.87 0.18 0.72 0.35 1.44-0.71-0.16-1.42-0.32 0.01-0.12 0.01-0.25zm4.26 38.49q-1.72 0.45-3.44 0.89-0.42 0.02-0.83 0.05 0.01-0.08 0.02-0.15c1.29-0.25 2.12-0.68 2.88-1.29q0.6 0.11 1.2 0.22 0.09 0.14 0.17 0.28zm-2.46-3.38q-0.19-0.4-0.39-0.8 0.49-0.32 0.98-0.64 0.22 0.12 0.45 0.24-0.29 0.58-0.57 1.16-0.23 0.02-0.47 0.04zm-8.93 9.95q0.85-0.66 1.7-1.32 2.62 0.23 5.24 0.45 0.09 0.2 0.18 0.39-1.77 1.02-3.54 2.04c-1.32-0.21-2.45-0.8-3.13-1.59q-0.22 0.02-0.45 0.03zm-2.63 0.12q1.32 0.72 2.63 1.44-2.13-0.37-4.27-0.75 0.82-0.34 1.64-0.69zm-0.21 2.94q-0.01 0.18-0.02 0.35-0.41 0.22-0.81 0.45-0.3 0.04-0.6 0.07 0.02-0.17 0.03-0.34c0.62-0.82 0.51-0.55 1.4-0.53zm-6.71-58.57q-0.2-0.22-0.41-0.43c1.41-0.77 3.64-1.14 5.84-1.31 1.8-0.15 3.58-0.17 4.86-0.2q0.34 2.16 0.69 4.32c-1.86-0.2-3.64-0.44-5.55-0.53-1.53-0.07-3.15-0.04-4.96 0.18q-0.23-1.02-0.47-2.03zm2.09 57.75q0.17 0.3 0.35 0.61-0.17 0.64-0.34 1.29-1.96 0.15-3.93 0.3c0.42-1.29 1.05-1.9 1.73-2.88q1.09 0.34 2.19 0.68zm-4.85-5c-1.79-0.09-4.24-1.4-4.76-2.87q2.84 0.72 5.69 1.44-0.47 0.72-0.93 1.43zm2-0.07q-0.54 0.04-1.07 0.07 0.02-0.16 0.04-0.34 0.59-0.55 1.18-1.1-0.08 0.69-0.15 1.37zm-3.92-52.63q0.87-0.27 1.73-0.55 0.56 0.7 1.12 1.4-0.59 0.02-1.17 0.04-0.84-0.44-1.68-0.89zm-0.02 61.79q-0.13 0.47-0.27 0.94-0.21 0.02-0.41 0.05-0.36-0.72-0.72-1.44 0.71 0.07 1.42 0.14-0.01 0.16-0.02 0.31zm0.79-6.21q1.66 0.34 3.32 0.67 0.09 0.23 0.18 0.45-1.29 1.6-2.58 3.2-1.55-0.23-3.11-0.46 1.1-1.93 2.19-3.86zm24.85-45.1q0.32-0.47 0.64-0.94 0.12-0.01 0.23-0.01 0.9 0.22 1.79 0.45 0.09 0.12 0.18 0.25-0.99 0.37-2 0.74-0.42-0.25-0.84-0.49zm3.85-4.65q-0.5-0.31-1.01-0.62c1.03 0.37 0.44-0.04 1.01 0.62zm-0.33 6.58q-0.34-0.29-0.68-0.58 0.71-0.43 1.43-0.86-0.38 0.72-0.75 1.44zm-0.68 10.07q1.11 0.27 2.22 0.55c0.59 0.23 0.58 0.29 0.63 0.89-0.95-0.36-2.54-0.61-2.85-1.44zm0.22-3.92q0.15-0.2 0.31-0.4 0.45 0.72 0.9 1.44-0.71-0.14-1.43-0.27 0.11-0.39 0.22-0.77zm-28.83 47.35q0.08 0.19 0.15 0.38-0.96 0.37-1.91 0.73-0.47 0.04-0.93 0.08 0-0.1 0.02-0.2 0.32-0.51 0.65-1.02c0.91-0.42 0.93-0.15 2.02 0.03zm-4.12-72.21c1.25 0.91 1.57 2.05 1.38 5.75-0.82-1.04-1.32-3.25-1.38-5.75zm0.82-2.88q-0.05 0.52-0.11 1.04-0.35 0.03-0.71 0.05 0.41-0.54 0.82-1.09zm-0.82 1.44q-0.05 0.52-0.1 1.04-0.66-0.12-1.32-0.25 0.54-0.38 1.08-0.77 0.18-0.01 0.34-0.02zm0 83.47q0.35-3.66 0.71-7.33 2.49-0.65 4.99-1.3-2.63 4.19-5.25 8.37-0.22 0.13-0.45 0.26zm0.36-19.69q0.38-0.23 0.76-0.46c0.7 0.83 0.07 2.02-0.58 2.88-0.55-0.51-0.61-0.83-0.47-2q0.14-0.21 0.29-0.42zm-4.63-0.71q0.83-1.31 1.64-2.63 1.32 0.77 2.63 1.54-1.35 2.11-2.71 4.22c-0.82-0.72-1.32-1.79-1.56-3.13zm0 11.28q1.31-1.2 2.63-2.39 0.62 0.05 1.24 0.11 0.2 0.33 0.4 0.67-0.16 1.05-0.31 2.1-1.98-0.25-3.96-0.49zm-4.27-1.96q1.57-0.93 3.13-1.87 1.2 0.18 2.39 0.37 0.09 0.17 0.18 0.33-1.26 1.09-2.51 2.18c-1.25-0.13-2.09-0.46-2.74-1.03q-0.23 0.01-0.45 0.02zm-0.41-2.78q0.57-0.27 1.14-0.53 0.25 0.05 0.49 0.1 0.11 0.12 0.21 0.24-1.66 0.55-3.32 1.1-0.47-0.17-0.95-0.33 1.22-0.29 2.43-0.58zm-3.85-1.35q0.41-1.01 0.83-2.03c1.56-0.2 1.93 0.57 3.09 1.05q0.17 0.26 0.34 0.52-0.87 0.59-1.74 1.19-0.7 0.04-1.41 0.09-0.56-0.41-1.11-0.82zm-2.85 5.9q1.03-1.82 2.07-3.64c1.38 0 1.54 0.11 2.11 0.84 0.25 0.42 0.03 0.19-0.52 0.28q-0.06 0.63-0.12 1.26 1.08 0.17 2.15 0.34c-0.42 1.05-0.49 0.91-1.13 1.58-2.12 0.11-3.08-0.29-4.56-0.66zm-2.4-5.08q1.81 0.54 3.62 1.09 0.1 0.21 0.2 0.43-1.16 1.4-2.32 2.8-1.69-0.56-3.37-1.11 0.94-1.6 1.87-3.21zm-13.94-3.89q0.02-0.22 0.05-0.43 1.01 0.78 2.02 1.55 0.09 0.21 0.17 0.41c-4.2 3.24 2.22 13.78 9.53 6.95q1.57 0.63 3.15 1.26c-1.21 2.15-3.29 3-5.48 4.21-5.22 0.43-12.54-8.08-9.44-13.95zm12.07 7.59q-1.3 1-2.6 2c-5.12 0.54-7.19-3-7.36-7.34q0.5-0.6 0.99-1.21 0.23-0.01 0.44-0.03c2.58 2.03 4.86 5.12 8.36 6.14q0.08 0.22 0.17 0.44zm-7.73-13.78q0.44 0.73 0.87 1.46-0.39 0.91-0.78 1.81-0.22 0.24-0.44 0.48c0.63 0.09 0.77-0.46 1.73-1.23 1.84 2.98 4.66 5.83 7.77 7.46q-0.85 1.49-1.7 2.98-2.57-1.65-5.14-3.31c-0.58-1.08 0.23-2.33-0.72-3-0.85-0.6-1.96 0.27-2.83 0.01q-1.21-1.1-2.41-2.21c0.7-1.58 1.39-3.13 2.79-3.94q0.43-0.25 0.86-0.51zm2.77-7.19c-0.46-0.34-0.49-0.5-0.73-1.07q0.49-1.85 0.97-3.69 0.57-0.5 1.14-1 0.37 0.54 0.73 1.07-1.05 2.35-2.11 4.69zm-0.73 1.24q1.12-2.64 2.25-5.29 0.23-0.14 0.46-0.27c1.03 1.82 2.52 2.64 2.98 5.11q-1.69 1.76-3.38 3.53c-1.05-0.77-1.78-1.77-2.31-3.08zm4.27 4.4q1.42-1.38 2.85-2.76 0.71 1.44 1.42 2.88-2.14-0.06-4.27-0.12zm7.11-29.08c-1.35 2.88-3.14 4.83-4.21 7.61-0.47-2.53 2.36-6.16 3.27-8.39q0.21-0.12 0.43-0.25 0.26 0.52 0.51 1.03zm0-7.91c2.12-0.66 3.54-1.85 5.05-3.19q0.32 0.96 0.64 1.92-0.89 1.2-1.79 2.4-1.95-0.57-3.9-1.13zm7.12 0.14q-0.39 0.49-0.77 0.99-0.33-0.06-0.66-0.11l0.02-0.16q0.65-0.59 1.29-1.17 0.06 0.23 0.12 0.45zm-1.12-6.2q0.11 0 0.22-0.01 0.45 0.94 0.9 1.88-0.17 0.5-0.34 1c-1.3-0.68-1.25-1.49-0.78-2.87zm-0.27 41.73q0.66 0.46 1.32 0.94-0.68-0.3-1.36-0.59 0.02-0.18 0.04-0.35zm-0.02 1.44q0.7 0.3 1.41 0.61-0.01 0.08-0.03 0.17-1.5 1.05-3.01 2.09c-0.87-0.38-0.98-1.16-1.23-2.01q0.01-0.08 0.02-0.17 1.42-0.35 2.84-0.69zm-4.21-2.88q0.67 0.27 1.35 0.54-0.36 0.21-0.72 0.42-0.36 0.04-0.7 0.08 0.03-0.52 0.07-1.04zm-0.07-28.79c1.7 0.49 1.16 0.17 1.24 1.44-0.79-0.45-0.84-0.67-1.24-1.44zm0 25.71q0.05-0.62 0.11-1.24c0.67 0.46 0.89 0.73 1.31 1.44q-0.72-0.1-1.42-0.2zm2.84-17.97c-0.53 0.69-0.51 0.49-1.42 0.9q0.31-0.72 0.62-1.44 0.4 0.27 0.8 0.54zm0-5.79q-0.44 0.47-0.89 0.93c-0.9-0.5-0.47-0.3-0.07-1.23q0.26-0.11 0.53-0.21 0.22 0.26 0.43 0.51zm-0.11-2.45q-0.66-0.47-1.31-0.94c1.01 0.39 0.77 0.15 1.31 0.94zm-2.73 26.41q0.71 0.57 1.42 1.13c-0.73-0.02-1.12-0.17-1.42-1.13zm4.26-0.05q-0.28 0.02-0.57 0.05-0.25-0.46-0.5-0.92-0.18-0.22-0.35-0.45 0.39-0.04 0.77-0.07 0.33 0.69 0.65 1.39zm-0.78-26.65q-0.32-0.33-0.64-0.65c0.63 0.44 0.21 0.01 0.64 0.65zm0.09 23.7q-0.36-0.76-0.73-1.51 0.16-0.62 0.31-1.24 0.09 0 0.18-0.01 0.47 1.44 0.93 2.88-0.34-0.06-0.69-0.12zm-3.73 16.74q0.08 0.1 0.16 0.2-0.26 0.94-0.51 1.89c-1.05-0.42-2.12-1.5-2.34-2.88q1.35 0.4 2.69 0.79zm-4.11 2.09q0.71 0.63 1.42 1.26c-0.91-0.4-0.97-0.38-1.42-1.26zm2.45-12.76q0.09 0.63 0.17 1.25-0.6-0.72-1.2-1.44 0.51 0.09 1.03 0.19zm-1.4 6.73q-0.53-1.3-1.05-2.61c1.24 0.48 2.21 1.91 2.84 2.88q-0.89-0.13-1.79-0.27zm1.11-25.62q0.18-0.01 0.36-0.01-0.52 0.72-1.04 1.44c-0.17-0.36 0.03-0.7 0.61-1.12q0.04-0.15 0.07-0.31zm-0.74 12.37q-0.14 0.28-0.29 0.57-0.4-0.32-0.81-0.63-0.16-0.35-0.32-0.69 0.55-0.06 1.11-0.12 0.16 0.43 0.31 0.87zm-9.96 12.08c2.85 1.86 7.69 3.57 8.54 7.2-3.31-1.57-6.53-4.39-8.54-7.2zm7.39-1.39q0.58 0.7 1.15 1.39-1.43-0.72-2.85-1.43 0.85 0.02 1.7 0.04zm10.42 4.27q-1.08-1.08-2.16-2.17 1.89-1.79 3.78-3.58 0.25 1.97 0.49 3.94-1.05 0.91-2.11 1.81zm2.11 2.41q0.19-0.47 0.38-0.94 0.25-0.02 0.5-0.03 0.27 0.72 0.54 1.44-0.71-0.24-1.42-0.47zm1.92-5.29q-0.25-0.71-0.5-1.43 0.53 0.09 1.04 0.19-0.27 0.62-0.54 1.24zm-1.92-48.46q0.01-0.06 0.02-0.12 0.7-0.18 1.4-0.35-0.49 0.72-0.98 1.44-0.22-0.48-0.44-0.97zm-14.35 29.75q-0.65-1.44-1.3-2.87c1.67 0.36 1.4 1.55 1.3 2.87zm-3.48 1.44c-1.22-0.84-2-2.51-2.09-4.31 2.49 0.59 2.36 1.57 2.84 3.84q-0.37 0.24-0.75 0.47zm-1.47-7.51c-1.82-1.71 0.83-8.56 1.99-10.14 0.61-0.77 1.39-0.76 2.41-1.06q0.33 0.09 0.67 0.18c-1.71 3.02-2.87 7.13-3.27 11.34q-0.9-0.16-1.8-0.32zm-2.12 31q0.04 0.49 0.07 0.98-0.58-0.44-1.16-0.87-0.13-0.29-0.26-0.57 0.67 0.23 1.35 0.46zm-5.46-23.52c0.18-1.42 0.49-2.88 0.83-4.27q0.1 0 0.2-0.01 0.37 2.14 0.74 4.28 0.19 1.11 0.39 2.23 1.68 4.66 3.37 9.32c-2.7-1.48-4.37-4.89-4.13-9.47-0.65 1.48-0.11 3.81 0.1 5.11-1.66-1.41-1.87-4.2-1.5-7.19zm-2.47 1.47q-0.37-0.74-0.48-1.73-0.12-1.01 0.03-2.42 0.12-0.26 0.24-0.52 0.55-0.54 1.1-1.08-0.31 2.01-0.62 4.02-0.13 0.87-0.27 1.73zm99.08 14.39q-1.42-0.54-2.84-1.09 1.38-0.17 2.76-0.34 0.04 0.72 0.08 1.43zm-75.31 23.43q0.37-0.2 0.75-0.4-0.43 0.72-0.86 1.44 0.05-0.52 0.11-1.04zm-21.46-49.33q-0.6-0.06-1.21-0.12c-1.51-0.49-2.93-2.25-3.06-4.2 2.31 0.21 3.1 1.3 4.24 2.63q0.02 0.84 0.03 1.69zm-6.64-2.85q0.48 0.7 0.95 1.41c-1.89-0.06-3.88-0.24-4.27-1.05q0.01-0.06 0.03-0.12c1.06-0.28 1.97-0.3 3.29-0.24zm56.71-41.77q0.84-0.27 1.68-0.55c0.72-1.2 1.14-2.47 0.77-3.64-1.73-0.34-2.72 0.08-4.34 0.75q-0.44 0.72-0.88 1.44-0.17 0.28-0.34 0.56 0.17 0.18 0.34 0.33c0.55 0.45 1.21 0.61 2.43 0.51 0.33 0.56-0.06 0.31-0.66 0.47q0.5 0.07 1 0.13zm-2.49-1.54q0.3 0.05 0.59 0.1-0.4-0.04-0.8-0.09-0.2 0.01-0.41 0.02c0.63-1.18 2.49-1.47 4.27-1.34q-0.06 0.43-0.12 0.85-1.75 0.09-3.49 0.17-0.02 0.14-0.04 0.29zm43.88 14.5q-0.9 0.17-1.8 0.33 0.55-0.03 1.11-0.07 0.63 0.27 1.26 0.54-0.96 1.76-1.92 3.51c0.99-1.16 1.97-1.99 2.39-3.75q-0.52-0.28-1.04-0.56zm-10.34 56.13c-0.45-0.8-0.94-1.32-1.43-1.44 0.44 0.4 0.94 0.88 1.43 1.44zm-5.69 17.27q-0.72 0.41-1.43 0.82 0.55-0.05 1.1-0.1 0.16-0.36 0.33-0.72zm5.69-17.27c1.44 1.63 2.53 4.75 2.22 7.19 1.64-3.54-0.23-5.75-2.22-7.19z"/>
</svg>