<svg version="1.2" xmlns="http://www.w3.org/2000/svg" viewBox="0 0 24 17" width="24" height="17">
	<defs>
		<clipPath clipPathUnits="userSpaceOnUse" id="cp1">
			<path d="m-8-11h40v40h-40z"/>
		</clipPath>
	</defs>
	<style>
		.s0 { fill: #ffffff } 
	</style>
	<g id="Clip-Path" clip-path="url(#cp1)">
		<g>
			<path class="s0" d="m21.73 6.05c-0.61-0.62-1.46-0.96-2.52-0.96-1.3 0-2.3 0.53-2.88 1.52v-4.93h-3.03v13.5h3.03v-4.74c0-1.11 0.23-1.82 0.57-2.24 0.33-0.41 0.79-0.57 1.29-0.57q0.67 0.01 1.04 0.39 0.38 0.4 0.39 1.24v5.91h3.03v-6.5c0-1.11-0.32-2.01-0.92-2.62zm-13.53-0.97c-1.31 0-2.31 0.53-2.88 1.53v-4.93h-3.03v13.5h3.02l0.01-4.74c0-1.11 0.22-1.82 0.56-2.24 0.33-0.41 0.8-0.57 1.3-0.57q0.67 0.01 1.04 0.39 0.38 0.4 0.38 1.24v5.91h3.03v-6.5c0-1.11-0.32-2.01-0.92-2.63-0.6-0.63-1.46-0.96-2.51-0.96z"/>
		</g>
	</g>
</svg>