<svg version="1.2" xmlns="http://www.w3.org/2000/svg" viewBox="0 0 70 59" width="70" height="59">
	<style>
		.s0 { fill: #ffffff } 
	</style>
	<path class="s0" d="m4.97 25.32q27.99-12.19 37.32-16.07c17.78-7.4 21.47-8.68 23.88-8.72 0.53-0.01 1.71 0.12 2.48 0.74 0.64 0.53 0.82 1.24 0.91 1.74 0.08 0.49 0.19 1.63 0.1 2.51-0.96 10.12-5.13 34.68-7.25 46.02-0.89 4.79-2.66 6.4-4.37 6.56-3.72 0.34-6.54-2.46-10.14-4.82-5.63-3.69-8.81-5.99-14.28-9.59-6.32-4.16-2.22-6.45 1.38-10.19 0.94-0.98 17.32-15.88 17.63-17.23 0.04-0.17 0.08-0.8-0.3-1.13-0.37-0.33-0.92-0.22-1.32-0.13q-0.85 0.19-27 17.84-3.82 2.64-6.94 2.57c-2.28-0.05-6.68-1.29-9.95-2.36-4-1.3-7.19-1.99-6.91-4.2q0.21-1.73 4.76-3.54z"/>
</svg>